<?xml version="1.0" encoding="UTF-8" standalone="no"?>
<svg width="28px" height="30px" viewBox="0 0 28 30" version="1.1" xmlns="http://www.w3.org/2000/svg" xmlns:xlink="http://www.w3.org/1999/xlink">
    <!-- Generator: Sketch 42 (36781) - http://www.bohemiancoding.com/sketch -->
    <title>spaces-logo</title>
    <desc>Created with Sketch.</desc>
    <defs>
        <polygon id="path-1" points="13.7994 30 27.5988 30 27.5988 0 0 0 0 15 0 30 13.7994 30"></polygon>
    </defs>
    <g id="2.1.1-View-Space" stroke="none" stroke-width="1" fill="none" fill-rule="evenodd">
        <g id="2.1.1-View-Space---1280" transform="translate(-36.000000, -15.000000)">
            <g id="Topbar">
                <g id="spaces-logo" transform="translate(36.000000, 15.000000)">
                    <path d="M18,22.0776 L18,23.0652 C16.8264,23.3376 14.58,23.7816 12,23.9388 C12.5868,23.9748 13.1868,24 13.8,24 C17.1108,24 20.1588,23.3988 21.6,23.064 L21.6,19.98 C20.5632,20.8824 19.344,21.594 18,22.0776" id="Fill-1" fill="#606366" opacity="0.15"></path>
                    <path d="M13.8,1.2 C13.1856,1.2 12.5868,1.26 12,1.3548 C17.0688,2.1696 20.934,6.3516 20.934,11.4 C20.934,16.4496 17.0688,20.6304 12,21.4452 C12.5868,21.54 13.1856,21.6 13.8,21.6 C19.728,21.6 24.534,17.0328 24.534,11.4 C24.534,5.7672 19.728,1.2 13.8,1.2" id="Fill-3" fill="#606366" opacity="0.15"></path>
                    <path d="M16.2,9.6 C16.5312,9.6 16.8,9.8688 16.8,10.2 C16.8,10.5312 16.5312,10.8 16.2,10.8 C15.8688,10.8 15.6,10.5312 15.6,10.2 C15.6,9.8688 15.8688,9.6 16.2,9.6" id="Fill-5" fill="#606366"></path>
                    <path d="M11.4,9.6 C11.7312,9.6 12,9.8688 12,10.2 C12,10.5312 11.7312,10.8 11.4,10.8 C11.0688,10.8 10.8,10.5312 10.8,10.2 C10.8,9.8688 11.0688,9.6 11.4,9.6" id="Fill-7" fill="#606366"></path>
                    <path d="M22.2,26.4 L18.6,26.4 C18.2688,26.4 18,26.6688 18,27 C18,27.3312 18.2688,27.6 18.6,27.6 L22.2,27.6 C22.5312,27.6 22.8,27.3312 22.8,27 C22.8,26.6688 22.5312,26.4 22.2,26.4" id="Fill-9" fill="#606366"></path>
                    <g id="Group-13">
                        <mask id="mask-2" fill="white">
                            <use xlink:href="#path-1"></use>
                        </mask>
                        <g id="Clip-12"></g>
                        <path d="M13.8,24 C10.4892,24 7.44,23.3988 6,23.064 L6,19.98 C8.04,21.7548 10.7784,22.8 13.8,22.8 C16.8216,22.8 19.56,21.7548 21.6,19.98 L21.6,23.064 C20.16,23.3988 17.1108,24 13.8,24 L13.8,24 Z M13.8,19.2 C17.604,19.2 20.9976,17.844 23.3052,15.5928 C21.8532,19.1796 18.2496,21.6 13.8,21.6 C9.3504,21.6 5.7468,19.1796 4.2948,15.5928 C6.6024,17.844 9.996,19.2 13.8,19.2 L13.8,19.2 Z M10.0212,7.2 C10.698,5.7864 12.1308,4.8 13.8,4.8 C15.4692,4.8 16.902,5.7864 17.5788,7.2 L10.0212,7.2 Z M13.8,1.2 C19.2336,1.2 24,6.2472 24,12 C24,12.2964 23.9808,12.588 23.9556,12.8772 C22.0548,16.0428 18.1908,18 13.8,18 C12.318,18 10.9068,17.76 9.6,17.3436 L9.6,15 C9.6,14.7732 9.4716,14.5656 9.2688,14.4636 L7.644,13.6512 C7.3704,13.5144 7.2,13.2384 7.2,12.9324 L7.2,12.804 C7.2,12.3612 7.56,12.0012 8.004,12.0012 L9,12.0012 C9.3312,12.0012 9.6,11.7324 9.6,11.4012 L9.6,9.0012 C9.6,8.796 9.6324,8.5992 9.6612,8.4012 L17.94,8.4012 C17.9688,8.5992 18.0012,8.796 18.0012,9.0012 L18.0012,10.2012 C18.0012,10.5324 18.27,10.8012 18.6012,10.8012 L19.5972,10.8012 C20.0412,10.8012 20.4012,11.1612 20.4012,11.6052 L20.4012,11.7336 C20.4012,12.0396 20.2308,12.3156 19.9572,12.4524 L18.3324,13.2648 C18.1848,13.3392 18.0756,13.4724 18.0276,13.6308 C17.9796,13.7892 18.0012,13.962 18.084,14.106 C18.1644,14.2464 18.2412,14.5116 18.2412,14.5284 C17.9844,14.646 16.812,14.616 15.5868,14.472 C15.5868,14.4456 15.6,14.4252 15.6,14.4 C15.6,13.7376 15.0624,13.2 14.4,13.2 C13.7376,13.2 13.2,13.7376 13.2,14.4 C13.2,15.0624 13.7376,15.6 14.4,15.6 C14.52,15.6 14.6292,15.564 14.7384,15.5316 C14.7936,15.5592 14.85,15.5844 14.9148,15.594 C18.3612,16.0848 18.8604,15.588 19.0236,15.4236 C19.4196,15.0276 19.4496,14.52 19.3536,14.094 L20.4924,13.524 C21.1752,13.182 21.6,12.4956 21.6,11.7312 L21.6,11.6028 C21.6,10.4976 20.7012,9.5988 19.596,9.5988 L19.2,9.5988 L19.2,8.9988 C19.2,6.0216 16.7772,3.5988 13.8,3.5988 C10.8228,3.5988 8.4,6.0216 8.4,8.9988 L8.4,10.7988 L8.004,10.7988 C6.8988,10.7988 6,11.6976 6,12.8016 L6,12.93 C6,13.6932 6.4248,14.3796 7.1076,14.7228 L8.4,15.3696 L8.4,16.8876 C6.3768,16.0032 4.7004,14.6364 3.6444,12.876 C3.6192,12.588 3.6,12.2964 3.6,12 C3.6,6.2472 8.3664,1.2 13.8,1.2 L13.8,1.2 Z M3,1.2 C3.3312,1.2 3.6,1.4688 3.6,1.8 C3.6,2.1312 3.3312,2.4 3,2.4 C2.6688,2.4 2.4,2.1312 2.4,1.8 C2.4,1.4688 2.6688,1.2 3,1.2 L3,1.2 Z M22.8,20.3964 L22.8,18.7536 C24.0564,17.238 24.8904,15.3696 25.1268,13.2516 C25.1724,12.8424 25.2,12.426 25.2,12 C25.2,5.7036 20.0964,0 13.8,0 C9.3276,0 5.4672,2.8848 3.6,6.8088 L3.6,3.4896 C4.2972,3.2412 4.8,2.5824 4.8,1.8 C4.8,0.8064 3.9936,0 3,0 C2.0064,0 1.2,0.8064 1.2,1.8 C1.2,2.5824 1.7028,3.2424 2.4,3.4896 L2.4,12.6 C2.4,12.672 2.418,12.738 2.4408,12.8016 C2.4516,12.9516 2.4564,13.1028 2.4732,13.2504 C2.7096,15.3672 3.5436,17.2368 4.8,18.7524 L4.8,20.4624 C1.1676,22.9908 0,26.9004 0,29.4 C0,29.7312 0.2688,30 0.6,30 C0.9312,30 1.2,29.7312 1.2,29.4 C1.2,27.3552 2.1132,24.2688 4.8,22.0248 L4.8,23.0652 C4.8,23.6256 5.1852,24.108 5.73,24.2352 C7.2288,24.5844 10.3608,25.2012 13.8,25.2012 C17.2392,25.2012 20.37,24.5856 21.8688,24.2352 C22.4136,24.108 22.7988,23.6256 22.7988,23.0652 L22.7988,21.9516 C25.4808,24.1488 26.3988,27.2064 26.3988,29.4 C26.3988,29.7312 26.6676,30 26.9988,30 C27.33,30 27.5988,29.7312 27.5988,29.4 C27.6,26.718 26.4252,22.8636 22.8,20.3964 L22.8,20.3964 Z" id="Fill-11" fill="#606366" mask="url(#mask-2)"></path>
                    </g>
                </g>
            </g>
        </g>
    </g>
</svg>