<?xml version="1.0" encoding="UTF-8" standalone="no"?>
<svg width="36px" height="36px" viewBox="0 0 36 36" version="1.1" xmlns="http://www.w3.org/2000/svg" xmlns:xlink="http://www.w3.org/1999/xlink">
    <!-- Generator: Sketch 44.1 (41455) - http://www.bohemiancoding.com/sketch -->
    <title>accounts-banner-icon</title>
    <desc>Created with Sketch.</desc>
    <defs></defs>
    <g id="Page-23" stroke="none" stroke-width="1" fill="none" fill-rule="evenodd">
        <g id="2.1.1-View-Space---1280---Team-and-account-dropdown-Copy-2" transform="translate(-36.000000, -492.000000)" fill="#EBF1F5">
            <g id="Teams-and-accounts-dropdown" transform="translate(0.000000, 35.000000)">
                <g id="Other-teams-banner" transform="translate(0.000000, 421.000000)">
                    <g id="accounts-banner-icon" transform="translate(36.000000, 36.000000)">
                        <path d="M18,14.4 C19.98864,14.4 21.6,16.01136 21.6,18 C21.6,19.98864 19.98864,21.6 18,21.6 C16.01136,21.6 14.4,19.98864 14.4,18 C14.4,16.01136 16.01136,14.4 18,14.4" id="Fill-1" opacity="0.149999991"></path>
                        <path d="M18,21.6 C16.01568,21.6 14.4,19.98432 14.4,18 C14.4,16.01424 16.01568,14.4 18,14.4 C19.98432,14.4 21.6,16.01424 21.6,18 C21.6,19.98432 19.98432,21.6 18,21.6 M18,12.96 C15.21648,12.96 12.96,15.21648 12.96,18 C12.96,20.78352 15.21648,23.04 18,23.04 C20.78352,23.04 23.04,20.78352 23.04,18 C23.04,15.21648 20.78352,12.96 18,12.96" id="Fill-3"></path>
                        <path d="M18,34.56 C8.86896,34.56 1.44,27.13104 1.44,18 C1.44,14.31216 2.66688,10.91376 4.71312,8.15904 C5.23728,8.45568 5.83488,8.64 6.48,8.64 C8.46864,8.64 10.08,7.02864 10.08,5.04 C10.08,4.54464 9.9792,4.07376 9.7992,3.64464 C12.21984,2.2536 15.01344,1.44 18,1.44 C27.13104,1.44 34.56,8.86896 34.56,18 C34.56,27.13104 27.13104,34.56 18,34.56 M6.48,2.88 C7.67088,2.88 8.64,3.84912 8.64,5.04 C8.64,6.23088 7.67088,7.2 6.48,7.2 C5.28912,7.2 4.32,6.23088 4.32,5.04 C4.32,3.84912 5.28912,2.88 6.48,2.88 M18,0 C14.70528,0 11.62944,0.90432 8.97408,2.45232 C8.32752,1.8288 7.45056,1.44 6.48,1.44 C4.49136,1.44 2.88,3.05136 2.88,5.04 C2.88,5.85648 3.16224,6.59952 3.61872,7.20432 C1.35648,10.21392 0,13.94352 0,18 C0,27.94176 8.05824,36 18,36 C27.94176,36 36,27.94176 36,18 C36,8.05824 27.94176,0 18,0" id="Fill-5"></path>
                        <path d="M29.52,18.72 C29.12256,18.72 28.8,18.39744 28.8,18 C28.8,17.60256 29.12256,17.28 29.52,17.28 C29.91744,17.28 30.24,17.60256 30.24,18 C30.24,18.39744 29.91744,18.72 29.52,18.72 M18,28.8 C12.0456,28.8 7.2,23.9544 7.2,18 C7.2,12.0456 12.0456,7.2 18,7.2 C23.28768,7.2 27.68832,11.02176 28.61136,16.04592 C27.87408,16.39008 27.36,17.13312 27.36,18 C27.36,18.86688 27.87408,19.60992 28.61136,19.95408 C27.68832,24.97824 23.28768,28.8 18,28.8 M31.68,18 C31.68,16.992 30.98592,16.15104 30.05136,15.91344 C29.0592,10.14912 24.048,5.76 18,5.76 C11.24064,5.76 5.76,11.24064 5.76,18 C5.76,24.75936 11.24064,30.24 18,30.24 C24.048,30.24 29.0592,25.85088 30.05136,20.08656 C30.98592,19.84896 31.68,19.008 31.68,18" id="Fill-7"></path>
                    </g>
                </g>
            </g>
        </g>
    </g>
</svg>