<?xml version="1.0" encoding="UTF-8" standalone="no"?>
<svg width="22px" height="29px" viewBox="0 0 22 29" version="1.1" xmlns="http://www.w3.org/2000/svg" xmlns:xlink="http://www.w3.org/1999/xlink">
    <!-- Generator: Sketch 44.1 (41455) - http://www.bohemiancoding.com/sketch -->
    <title>spaces-logo</title>
    <desc>Created with Sketch.</desc>
    <defs></defs>
    <g id="Page-23" stroke="none" stroke-width="1" fill="none" fill-rule="evenodd">
        <g id="2.1.1-View-Space---1280-Copy-8" transform="translate(-629.000000, -15.000000)" fill="#606366">
            <g id="Topbar">
                <g id="spaces-logo" transform="translate(629.000000, 15.000000)">
                    <path d="M10.9615385,1.27384615 C10.6603846,1.48269231 10.2507692,1.83923077 9.80769231,2.28115385 C11.1057692,3.57692308 12.6923077,5.61923077 12.6923077,6.92307692 L12.6923077,23.4011538 C12.3565385,23.5073077 11.955,23.6203846 11.5384615,23.73 L11.5384615,24.1823077 C12.6542308,24.0726923 14.0515385,23.7011538 15,23.4011538 L15,6.92307692 C15,5.17384615 12.1442308,2.09423077 10.9615385,1.27384615" id="Fill-1" opacity="0.149999991"></path>
                    <polygon id="Fill-3" opacity="0.149999991" points="3.46153846 16.6315385 3.46153846 23.0769231 5.76923077 23.0769231 5.76923077 14.3238462"></polygon>
                    <polygon id="Fill-5" opacity="0.149999991" points="16.1538462 14.3238462 16.1538462 23.0769231 18.4615385 23.0769231 18.4615385 16.6315385"></polygon>
                    <path d="M20.7692308,22.5 C20.7692308,22.8184615 20.5107692,23.0769231 20.1923077,23.0769231 L16.1538462,23.0769231 L16.1538462,14.3238462 L20.6007692,18.7707692 C20.7092308,18.8792308 20.7692308,19.0246154 20.7692308,19.1792308 L20.7692308,22.5 Z M13.5923077,27.6923077 L8.33076923,27.6923077 L8.84653846,25.1134615 C9.57576923,25.2703846 10.3257692,25.3846154 10.9615385,25.3846154 C11.5973077,25.3846154 12.3473077,25.2703846 13.0765385,25.1134615 L13.5923077,27.6923077 Z M6.92307692,6.92307692 C6.92307692,5.17384615 9.77884615,2.09423077 10.9615385,1.27384615 C12.1442308,2.09538462 15,5.175 15,6.92307692 L15,23.4011538 C14.0515385,23.7011538 12.6542308,24.0726923 11.5384615,24.1823077 L11.5384615,16.7307692 C11.5384615,16.4123077 11.28,16.1538462 10.9615385,16.1538462 C10.6430769,16.1538462 10.3846154,16.4123077 10.3846154,16.7307692 L10.3846154,24.1823077 C9.26884615,24.0726923 7.87153846,23.7011538 6.92307692,23.4011538 L6.92307692,6.92307692 Z M1.73076923,23.0769231 C1.41230769,23.0769231 1.15384615,22.8184615 1.15384615,22.5 L1.15384615,19.1780769 C1.15384615,19.0234615 1.21384615,18.8792308 1.32230769,18.7696154 L5.76923077,14.3226923 L5.76923077,23.0769231 L1.73076923,23.0769231 Z M21.4165385,17.955 L16.1538462,12.6923077 L16.1538462,6.92307692 C16.1538462,4.18269231 11.6826923,0 10.9615385,0 C10.2403846,0 5.76923077,4.18269231 5.76923077,6.92307692 L5.76923077,12.6923077 L0.506538462,17.955 C0.182307692,18.2792308 0,18.72 0,19.1792308 L0,22.5011538 C0,23.4565385 0.775384615,24.2319231 1.73076923,24.2319231 L5.76923077,24.2319231 C5.76923077,24.2319231 6.62307692,24.5411538 7.725,24.84 L7.2,27.4673077 C7.05692308,28.1815385 7.60384615,28.8473077 8.33192308,28.8473077 L13.5934615,28.8473077 C14.3215385,28.8473077 14.8673077,28.1815385 14.7253846,27.4673077 L14.2003846,24.84 C15.3,24.54 16.1538462,24.2307692 16.1538462,24.2307692 L20.1923077,24.2307692 C21.1476923,24.2307692 21.9230769,23.4553846 21.9230769,22.5 L21.9230769,19.1780769 C21.9230769,18.72 21.7407692,18.2792308 21.4165385,17.955 L21.4165385,17.955 Z" id="Fill-7"></path>
                    <path d="M19.0384615,25.3846154 C18.72,25.3846154 18.4615385,25.6430769 18.4615385,25.9615385 L18.4615385,27.1153846 C18.4615385,27.4338462 18.72,27.6923077 19.0384615,27.6923077 C19.3569231,27.6923077 19.6153846,27.4338462 19.6153846,27.1153846 L19.6153846,25.9615385 C19.6153846,25.6430769 19.3569231,25.3846154 19.0384615,25.3846154" id="Fill-9"></path>
                    <path d="M2.88461538,25.3846154 C2.56615385,25.3846154 2.30769231,25.6430769 2.30769231,25.9615385 L2.30769231,27.1153846 C2.30769231,27.4338462 2.56615385,27.6923077 2.88461538,27.6923077 C3.20307692,27.6923077 3.46153846,27.4338462 3.46153846,27.1153846 L3.46153846,25.9615385 C3.46153846,25.6430769 3.20307692,25.3846154 2.88461538,25.3846154" id="Fill-11"></path>
                    <path d="M10.9615385,8.07692308 C11.5338462,8.07692308 12.4465385,8.69538462 12.8861538,9.08538462 C13.1261538,9.29769231 13.4896154,9.27461538 13.7007692,9.03692308 C13.9119231,8.79807692 13.8911538,8.43461538 13.6523077,8.22346154 C13.5034615,8.08961538 12.1557692,6.92307692 10.9615385,6.92307692 C9.68769231,6.92307692 8.40115385,8.1 8.25807692,8.23384615 C8.02615385,8.45192308 8.01576923,8.81769231 8.23384615,9.04961538 C8.34807692,9.16961538 8.50038462,9.23076923 8.65384615,9.23076923 C8.79576923,9.23076923 8.93769231,9.17884615 9.04961538,9.07384615 C9.32423077,8.81538462 10.2657692,8.07692308 10.9615385,8.07692308" id="Fill-13"></path>
                </g>
            </g>
        </g>
    </g>
</svg>