<?xml version="1.0" encoding="UTF-8" standalone="no"?>
<svg width="10px" height="10px" viewBox="0 0 10 10" version="1.1" xmlns="http://www.w3.org/2000/svg" xmlns:xlink="http://www.w3.org/1999/xlink">
    <!-- Generator: Sketch 42 (36781) - http://www.bohemiancoding.com/sketch -->
    <title>space-sidebar-add-icon</title>
    <desc>Created with Sketch.</desc>
    <defs></defs>
    <g id="2.1.1-View" stroke="none" stroke-width="1" fill="none" fill-rule="evenodd">
        <g transform="translate(-158.000000, -151.000000)" id="Sidebar" fill="#A1AAB3">
            <g>
                <g id="Avatars" transform="translate(30.000000, 144.000000)">
                    <g id="Add" transform="translate(121.000000, 0.000000)">
                        <path d="M11,11 L7.99539757,11 C7.4556644,11 7,11.4477153 7,12 C7,12.5561352 7.44565467,13 7.99539757,13 L11,13 L11,16.0046024 C11,16.5443356 11.4477153,17 12,17 C12.5561352,17 13,16.5543453 13,16.0046024 L13,13 L16.0046024,13 C16.5443356,13 17,12.5522847 17,12 C17,11.4438648 16.5543453,11 16.0046024,11 L13,11 L13,7.99539757 C13,7.4556644 12.5522847,7 12,7 C11.4438648,7 11,7.44565467 11,7.99539757 L11,11 Z" id="space-sidebar-add-icon"></path>
                    </g>
                </g>
            </g>
        </g>
    </g>
</svg>