<?xml version="1.0" encoding="UTF-8" standalone="no"?>
<svg width="18px" height="19px" viewBox="0 0 18 19" version="1.1" xmlns="http://www.w3.org/2000/svg" xmlns:xlink="http://www.w3.org/1999/xlink">
    <!-- Generator: Sketch 44.1 (41455) - http://www.bohemiancoding.com/sketch -->
    <title>edit-page</title>
    <desc>Created with Sketch.</desc>
    <defs>
        <polygon id="path-1" points="8.64947368 18.1235698 17.2989474 18.1235698 17.2989474 0.823180778 0 0.823180778 0 18.1235698"></polygon>
    </defs>
    <g id="2.1.1-View-Space" stroke="none" stroke-width="1" fill="none" fill-rule="evenodd">
        <g id="2.1.1-View-Space---Sidebar---320" transform="translate(-24.000000, -446.000000)">
            <g id="edit-page" transform="translate(24.000000, 446.000000)">
                <path d="M11.98627,3.22492449 L11.98627,3.22492449 L14.0745995,5.313254 L3.03157895,16.3562746 C2.95496568,16.4328879 2.84869565,16.4765492 2.73995423,16.4765492 L0.822974828,16.4765492 L0.822974828,17.3003478 L3.56457666,17.3003478 C3.67331808,17.3003478 3.7795881,17.2558627 3.85620137,17.1800732 L14.899222,6.13705263 L11.98627,3.22492449 Z" id="Fill-1" fill="#606366" opacity="0.149999991"></path>
                <path d="M16.3548741,4.09815103 L14.0251716,1.76762471 L14.0243478,1.76762471 L15.5302517,3.2735286 C15.6908924,3.43416934 15.6908924,3.6953135 15.5302517,3.85595423 L14.6562014,4.73000458 L15.4808238,5.554627 L16.3548741,4.68057666 C16.5155149,4.51993593 16.5155149,4.25879176 16.3548741,4.09815103" id="Fill-3" fill="#606366" opacity="0.149999991"></path>
                <g id="Group-7" transform="translate(0.000000, 0.000577)">
                    <mask id="mask-2" fill="white">
                        <use xlink:href="#path-1"></use>
                    </mask>
                    <g id="Clip-6"></g>
                    <path d="M16.3548741,4.68 L15.4808238,5.55405034 L12.5678719,2.6410984 L13.4419222,1.76704805 C13.6025629,1.60640732 13.8637071,1.60723112 14.0243478,1.76704805 L16.3540503,4.09757437 C16.5155149,4.2582151 16.5155149,4.51935927 16.3548741,4.68 L16.3548741,4.68 Z M3.85620137,17.1794966 C3.7795881,17.2561098 3.67331808,17.2997712 3.56457666,17.2997712 L0.822974828,17.2997712 L0.822974828,14.5573455 C0.822974828,14.4494279 0.867459954,14.3423341 0.943249428,14.2657208 L11.98627,3.22352403 L14.899222,6.13565217 L3.85620137,17.1794966 Z M16.9381236,3.51514874 L14.6084211,1.18462243 C14.1264989,0.702700229 13.3430664,0.702700229 12.8611442,1.18462243 L0.361647597,13.684119 C0.128512586,13.917254 0,14.2278261 0,14.5581693 L0,17.2997712 C0,17.5271396 0.0922654462,17.7330892 0.241372998,17.8821968 C0.390480549,18.0313043 0.596430206,18.1235698 0.823798627,18.1235698 L3.56540046,18.1235698 C3.89574371,18.1235698 4.20631579,17.9950572 4.4394508,17.7619222 L16.9389474,5.26242563 C17.419222,4.78132723 17.419222,3.99707094 16.9381236,3.51514874 L16.9381236,3.51514874 Z" id="Fill-5" fill="#606366" mask="url(#mask-2)"></path>
                </g>
                <path d="M15.2394508,17.3003478 L7.00146453,17.3003478 C6.77409611,17.3003478 6.58956522,17.4848787 6.58956522,17.7122471 C6.58956522,17.9396156 6.77409611,18.1241465 7.00146453,18.1241465 L15.2394508,18.1241465 C15.4668192,18.1241465 15.6513501,17.9396156 15.6513501,17.7122471 C15.6513501,17.4848787 15.4668192,17.3003478 15.2394508,17.3003478" id="Fill-8" fill="#606366"></path>
            </g>
        </g>
    </g>
</svg>