<?xml version="1.0" encoding="UTF-8" standalone="no"?>
<svg width="5px" height="8px" viewBox="0 0 5 8" version="1.1" xmlns="http://www.w3.org/2000/svg" xmlns:xlink="http://www.w3.org/1999/xlink">
    <!-- Generator: Sketch 42 (36781) - http://www.bohemiancoding.com/sketch -->
    <title>space-sidebar-page-closed</title>
    <desc>Created with Sketch.</desc>
    <defs></defs>
    <g id="2.1.1-View" stroke="none" stroke-width="1" fill="none" fill-rule="evenodd">
        <g transform="translate(-29.000000, -472.000000)" id="Sidebar" fill="#A1AAB3">
            <g>
                <g id="Arrow" transform="translate(30.000000, 476.000000) rotate(45.000000) translate(-30.000000, -476.000000) translate(27.000000, 473.000000)">
                    <path d="M5.85648844,0.149769472 C5.94524429,0.239358168 6,0.360871295 6,0.491005182 L6,5.50899482 C6,5.78016949 5.76806641,6 5.5,6 C5.22385763,6 5,5.77211952 5,5.50899482 L5,1 L0.491005182,1 C0.219830508,1 -5.68434189e-14,0.768066406 -5.68434189e-14,0.5 C-5.68434189e-14,0.223857625 0.227880478,-5.68434189e-14 0.491005182,-5.68434189e-14 L5.50899482,-5.68434189e-14 C5.64307334,-5.68434189e-14 5.76459991,0.0567001018 5.85320903,0.146433225 Z" id="space-sidebar-page-closed"></path>
                </g>
            </g>
        </g>
    </g>
</svg>