<?xml version="1.0" encoding="UTF-8" standalone="no"?>
<svg width="15px" height="18px" viewBox="0 0 15 18" version="1.1" xmlns="http://www.w3.org/2000/svg" xmlns:xlink="http://www.w3.org/1999/xlink">
    <!-- Generator: Sketch 42 (36781) - http://www.bohemiancoding.com/sketch -->
    <title>remove-icon</title>
    <desc>Created with Sketch.</desc>
    <defs></defs>
    <g id="2.1.2-Edit" stroke="none" stroke-width="1" fill="none" fill-rule="evenodd">
        <g transform="translate(-225.000000, -154.000000)" id="Group-2" fill="#A1AAB3">
            <g transform="translate(195.000000, 153.000000)">
                <g id="Group-5">
                    <path d="M39,16.75 L40.125,16.75 L40.125,8.873875 L39,8.873875 L39,16.75 Z M36.75,16.75 L37.875,16.75 L37.875,8.875 L36.75,8.875 L36.75,16.75 Z M34.5,16.75 L35.625,16.75 L35.625,8.873875 L34.5,8.873875 L34.5,16.75 Z M42.9375,5.498875 L42.375,5.498875 L32.25,5.498875 L31.6875,5.498875 C31.378125,5.498875 31.125,5.248 31.125,4.9375 C31.125,4.627 31.378125,4.375 31.6875,4.375 L35.0625,4.375 L39.5625,4.375 L42.9375,4.375 C43.248,4.375 43.5,4.627 43.5,4.9375 C43.5,5.248 43.248,5.498875 42.9375,5.498875 L42.9375,5.498875 Z M42.375,7.1875 L42.375,7.75 L42.375,17.3125 C42.375,17.623 42.123,17.875 41.8125,17.875 L32.8125,17.875 C32.503125,17.875 32.25,17.623 32.25,17.3125 L32.25,7.75 L32.25,7.1875 L32.25,6.625 L32.8125,6.625 L41.8125,6.625 L42.375,6.625 L42.375,7.1875 Z M35.625,3.25 L39,3.25 L39,2.125 L35.625,2.125 L35.625,3.25 Z M43.5,3.25 L40.125,3.25 L40.125,1.5625 C40.125,1.252 39.873,1 39.5625,1 L35.0625,1 C34.753125,1 34.5,1.252 34.5,1.5625 L34.5,3.25 L31.125,3.25 C30.504,3.25 30,3.754 30,4.375 L30,5.498875 C30,6.121 30.504,6.625 31.125,6.625 L31.125,17.875 C31.125,18.496 31.629,19 32.25,19 L42.375,19 C42.997125,19 43.5,18.496 43.5,17.875 L43.5,6.625 C44.122125,6.625 44.625,6.121 44.625,5.498875 L44.625,4.375 C44.625,3.754 44.122125,3.25 43.5,3.25 L43.5,3.25 Z" id="remove-icon"></path>
                </g>
            </g>
        </g>
    </g>
</svg>