<?xml version="1.0" encoding="UTF-8" standalone="no"?>
<svg width="13px" height="13px" viewBox="0 0 13 13" version="1.1" xmlns="http://www.w3.org/2000/svg" xmlns:xlink="http://www.w3.org/1999/xlink">
    <!-- Generator: Sketch 44.1 (41455) - http://www.bohemiancoding.com/sketch -->
    <title>row-ul-off</title>
    <desc>Created with Sketch.</desc>
    <defs></defs>
    <g id="Page-23" stroke="none" stroke-width="1" fill="none" fill-rule="evenodd">
        <g id="Artboard" transform="translate(-135.000000, -96.000000)" fill="#797C7F">
            <g id="Row-off" transform="translate(24.000000, 95.000000)">
                <path d="M112.15,1.045 L112.15,1.045 C112.564214,1.045 112.9,1.38078644 112.9,1.795 L112.9,1.795 C112.9,2.20921356 112.564214,2.545 112.15,2.545 C111.735786,2.545 111.4,2.20921356 111.4,1.795 L111.4,1.795 L111.4,1.795 C111.4,1.38078644 111.735786,1.045 112.15,1.045 L112.15,1.045 Z M112.15,6.295 L112.15,6.295 C112.564214,6.295 112.9,6.63078644 112.9,7.045 C112.9,7.45921356 112.564214,7.795 112.15,7.795 C111.735786,7.795 111.4,7.45921356 111.4,7.045 C111.4,6.63078644 111.735786,6.295 112.15,6.295 L112.15,6.295 Z M112.15,11.545 L112.15,11.545 C112.564214,11.545 112.9,11.8807864 112.9,12.295 C112.9,12.7092136 112.564214,13.045 112.15,13.045 C111.735786,13.045 111.4,12.7092136 111.4,12.295 C111.4,11.8807864 111.735786,11.545 112.15,11.545 L112.15,11.545 Z M115.65,1.045 L122.65,1.045 C123.064214,1.045 123.4,1.38078644 123.4,1.795 L123.4,1.795 C123.4,2.20921356 123.064214,2.545 122.65,2.545 L115.65,2.545 C115.235786,2.545 114.9,2.20921356 114.9,1.795 L114.9,1.795 L114.9,1.795 C114.9,1.38078644 115.235786,1.045 115.65,1.045 L115.65,1.045 Z M115.65,6.295 L122.65,6.295 C123.064214,6.295 123.4,6.63078644 123.4,7.045 C123.4,7.45921356 123.064214,7.795 122.65,7.795 L115.65,7.795 C115.235786,7.795 114.9,7.45921356 114.9,7.045 C114.9,6.63078644 115.235786,6.295 115.65,6.295 Z M115.65,11.545 L122.65,11.545 C123.064214,11.545 123.4,11.8807864 123.4,12.295 C123.4,12.7092136 123.064214,13.045 122.65,13.045 L115.65,13.045 C115.235786,13.045 114.9,12.7092136 114.9,12.295 C114.9,11.8807864 115.235786,11.545 115.65,11.545 Z" id="row-ul-off"></path>
            </g>
        </g>
    </g>
</svg>