<?xml version="1.0" encoding="UTF-8" standalone="no"?>
<svg width="21px" height="13px" viewBox="0 0 21 13" version="1.1" xmlns="http://www.w3.org/2000/svg" xmlns:xlink="http://www.w3.org/1999/xlink">
    <!-- Generator: Sketch 44.1 (41455) - http://www.bohemiancoding.com/sketch -->
    <title>row-h2-off</title>
    <desc>Created with Sketch.</desc>
    <defs></defs>
    <g id="Page-23" stroke="none" stroke-width="1" fill="none" fill-rule="evenodd">
        <g id="Artboard" transform="translate(-59.000000, -96.000000)" fill="#797C7F">
            <g id="Row-off" transform="translate(24.000000, 95.000000)">
                <path d="M35.9855,12.093 C35.9855,12.671 36.4445,13.13 37.0395,13.13 C37.6175,13.13 38.0765,12.671 38.0765,12.093 L38.0765,8.03 L43.7545,8.03 L43.7545,12.093 C43.7545,12.671 44.2135,13.13 44.7915,13.13 C45.3865,13.13 45.8455,12.671 45.8455,12.093 L45.8455,2.097 C45.8455,1.519 45.3865,1.06 44.7915,1.06 C44.2135,1.06 43.7545,1.519 43.7545,2.097 L43.7545,6.092 L38.0765,6.092 L38.0765,2.097 C38.0765,1.519 37.6175,1.06 37.0395,1.06 C36.4445,1.06 35.9855,1.519 35.9855,2.097 L35.9855,12.093 Z M48.9345,12.291 C48.9345,12.759 49.2985,13.045 49.7925,13.045 L54.9535,13.045 C55.3435,13.045 55.6555,12.733 55.6555,12.343 C55.6555,11.953 55.3435,11.641 54.9535,11.641 L51.2615,11.641 L53.1335,10.081 C54.7455,8.768 55.4995,7.988 55.4995,6.558 L55.4995,6.532 C55.4995,4.907 54.2775,3.815 52.4965,3.815 C51.0665,3.815 50.2215,4.361 49.4805,5.284 C49.3635,5.427 49.2985,5.609 49.2985,5.778 C49.2985,6.181 49.6235,6.506 50.0265,6.506 C50.2865,6.506 50.4685,6.389 50.5855,6.259 C51.1445,5.583 51.6515,5.245 52.3795,5.245 C53.2115,5.245 53.8485,5.765 53.8485,6.662 C53.8485,7.481 53.3935,8.066 52.1455,9.119 L49.3505,11.498 C49.0775,11.719 48.9345,11.979 48.9345,12.291 Z" id="row-h2-off"></path>
            </g>
        </g>
    </g>
</svg>