<?xml version="1.0" encoding="UTF-8" standalone="no"?>
<svg width="16px" height="18px" viewBox="0 0 16 18" version="1.1" xmlns="http://www.w3.org/2000/svg" xmlns:xlink="http://www.w3.org/1999/xlink">
    <!-- Generator: Sketch 44.1 (41455) - http://www.bohemiancoding.com/sketch -->
    <title>toc-delete</title>
    <desc>Created with Sketch.</desc>
    <defs></defs>
    <g id="Edit" stroke="none" stroke-width="1" fill="none" fill-rule="evenodd">
        <g id="2.1.1-View-Space---1280-Copy" transform="translate(-170.000000, -132.000000)" fill="#606366">
            <g id="toc-delete" transform="translate(170.000000, 132.000000)">
                <path d="M11.88675,3 L11.26725,15.393 C11.25675,15.59325 11.0925,15.75 10.89225,15.75 L2.925,15.75 L2.982,16.89375 C2.9925,17.09325 3.15675,17.25 3.357,17.25 L12.4305,17.25 C12.63075,17.25 12.795,17.09325 12.8055,16.893 L13.5,3 L11.88675,3 Z" id="Fill-1" opacity="0.15"></path>
                <path d="M12.8055,16.893 C12.795,17.09325 12.63075,17.25 12.4305,17.25 L3.357,17.25 C3.15675,17.25 2.9925,17.09325 2.982,16.89375 L2.28825,3 L13.5,3 L12.8055,16.893 Z M5.0145,1.03425 C5.0565,0.867 5.20575,0.75 5.37825,0.75 L10.37175,0.75 C10.54425,0.75 10.6935,0.867 10.7355,1.03425 L11.03925,2.25 L4.71075,2.25 L5.0145,1.03425 Z M15.375,2.25 L11.8125,2.25 L11.463,0.852 C11.33775,0.351 10.88775,0 10.37175,0 L5.37825,0 C4.86225,0 4.41225,0.351 4.287,0.852 L3.9375,2.25 L0.375,2.25 C0.168,2.25 0,2.418 0,2.625 C0,2.832 0.168,3 0.375,3 L1.5375,3 L2.23425,16.932 C2.265,17.53125 2.7585,18 3.35775,18 L12.43125,18 C13.0305,18 13.524,17.53125 13.55475,16.93125 L14.2515,3 L15.37575,3 C15.58275,3 15.75075,2.832 15.75075,2.625 C15.75075,2.418 15.582,2.25 15.375,2.25 L15.375,2.25 Z" id="Fill-3"></path>
                <path d="M5.625,6.75 C5.418,6.75 5.25,6.918 5.25,7.125 L5.25,13.125 C5.25,13.332 5.418,13.5 5.625,13.5 C5.832,13.5 6,13.332 6,13.125 L6,7.125 C6,6.918 5.832,6.75 5.625,6.75" id="Fill-5"></path>
                <path d="M10.125,6.75 C9.918,6.75 9.75,6.918 9.75,7.125 L9.75,13.125 C9.75,13.332 9.918,13.5 10.125,13.5 C10.332,13.5 10.5,13.332 10.5,13.125 L10.5,7.125 C10.5,6.918 10.332,6.75 10.125,6.75" id="Fill-7"></path>
                <path d="M7.875,6 C7.668,6 7.5,6.168 7.5,6.375 L7.5,13.875 C7.5,14.082 7.668,14.25 7.875,14.25 C8.082,14.25 8.25,14.082 8.25,13.875 L8.25,6.375 C8.25,6.168 8.082,6 7.875,6" id="Fill-9"></path>
            </g>
        </g>
    </g>
</svg>