<?xml version="1.0" encoding="UTF-8" standalone="no"?>
<svg width="18px" height="18px" viewBox="0 0 18 18" version="1.1" xmlns="http://www.w3.org/2000/svg" xmlns:xlink="http://www.w3.org/1999/xlink">
    <!-- Generator: Sketch 44.1 (41455) - http://www.bohemiancoding.com/sketch -->
    <title>toc-new</title>
    <desc>Created with Sketch.</desc>
    <defs></defs>
    <g id="Edit" stroke="none" stroke-width="1" fill="none" fill-rule="evenodd">
        <g id="2.1.1-View-Space---1280-Copy" transform="translate(-198.000000, -132.000000)" fill="#606366">
            <g id="Space-pages" transform="translate(36.000000, 89.000000)">
                <g id="toc-new" transform="translate(162.000000, 43.000000)">
                    <path d="M14.08248,2.47752 C15.17976,3.88224 15.84,5.64336 15.84,7.56 C15.84,12.12552 12.12552,15.84 7.56,15.84 C5.64336,15.84 3.88224,15.17976 2.47752,14.08248 C3.99384,16.02432 6.3504,17.28 9,17.28 C13.56552,17.28 17.28,13.56552 17.28,9 C17.28,6.3504 16.02432,3.99384 14.08248,2.47752" id="Fill-1" opacity="0.149999991"></path>
                    <path d="M11.88,8.64 L9.36,8.64 L9.36,6.12 C9.36,5.92128 9.19872,5.76 9,5.76 C8.80128,5.76 8.64,5.92128 8.64,6.12 L8.64,8.64 L6.12,8.64 C5.92128,8.64 5.76,8.80128 5.76,9 C5.76,9.19872 5.92128,9.36 6.12,9.36 L8.64,9.36 L8.64,11.88 C8.64,12.07872 8.80128,12.24 9,12.24 C9.19872,12.24 9.36,12.07872 9.36,11.88 L9.36,9.36 L11.88,9.36 C12.07872,9.36 12.24,9.19872 12.24,9 C12.24,8.80128 12.07872,8.64 11.88,8.64" id="Fill-3"></path>
                    <path d="M9,17.28 C4.43448,17.28 0.72,13.56552 0.72,9 C0.72,4.43448 4.43448,0.72 9,0.72 C13.56552,0.72 17.28,4.43448 17.28,9 C17.28,13.56552 13.56552,17.28 9,17.28 M9,0 C4.02912,0 0,4.02984 0,9 C0,13.97016 4.02912,18 9,18 C13.97088,18 18,13.97016 18,9 C18,4.02984 13.97088,0 9,0" id="Fill-5"></path>
                </g>
            </g>
        </g>
    </g>
</svg>