<?xml version="1.0" encoding="UTF-8" standalone="no"?>
<svg width="17px" height="13px" viewBox="0 0 17 13" version="1.1" xmlns="http://www.w3.org/2000/svg" xmlns:xlink="http://www.w3.org/1999/xlink">
    <!-- Generator: Sketch 44.1 (41455) - http://www.bohemiancoding.com/sketch -->
    <title>tooltip-h1-off</title>
    <desc>Created with Sketch.</desc>
    <defs></defs>
    <g id="Page-23" stroke="none" stroke-width="1" fill="none" fill-rule="evenodd">
        <g id="Artboard" transform="translate(-24.000000, -24.000000)" fill="#EBF1F5">
            <g id="Tooltip-off" transform="translate(24.000000, 23.000000)">
                <path d="M0,12.033 C0,12.611 0.459,13.07 1.054,13.07 C1.632,13.07 2.091,12.611 2.091,12.033 L2.091,7.97 L7.769,7.97 L7.769,12.033 C7.769,12.611 8.228,13.07 8.806,13.07 C9.401,13.07 9.86,12.611 9.86,12.033 L9.86,2.037 C9.86,1.459 9.401,1 8.806,1 C8.228,1 7.769,1.459 7.769,2.037 L7.769,6.032 L2.091,6.032 L2.091,2.037 C2.091,1.459 1.632,1 1.054,1 C0.459,1 0,1.459 0,2.037 L0,12.033 Z M15.06,12.145 C15.06,12.655 15.48,13.06 15.975,13.06 C16.485,13.06 16.89,12.655 16.89,12.145 L16.89,3.265 C16.89,2.755 16.5,2.35 15.975,2.35 L15.945,2.35 C15.675,2.35 15.405,2.41 15.045,2.515 L13.455,3.025 C13.08,3.13 12.84,3.43 12.84,3.82 C12.84,4.24 13.215,4.6 13.65,4.6 C13.74,4.6 13.875,4.585 13.98,4.555 L15.06,4.225 L15.06,12.145 Z" id="tooltip-h1-off"></path>
            </g>
        </g>
    </g>
</svg>