<?xml version="1.0" encoding="UTF-8" standalone="no"?>
<svg width="17px" height="13px" viewBox="0 0 17 13" version="1.1" xmlns="http://www.w3.org/2000/svg" xmlns:xlink="http://www.w3.org/1999/xlink">
    <!-- Generator: Sketch 44.1 (41455) - http://www.bohemiancoding.com/sketch -->
    <title>tooltip-strike-off</title>
    <desc>Created with Sketch.</desc>
    <defs></defs>
    <g id="Page-23" stroke="none" stroke-width="1" fill="none" fill-rule="evenodd">
        <g id="Artboard" transform="translate(-204.000000, -24.000000)" fill="#EBF1F5">
            <g id="Tooltip-off" transform="translate(24.000000, 23.000000)">
                <path d="M186.832437,7.27000005 C187.295054,7.43805139 187.827448,7.58357564 188.432,7.715 C190.931,8.242 191.526,8.871 191.526,9.976 L191.526,10.01 C191.526,11.183 190.472,12.033 188.874,12.033 C187.361,12.033 186.239,11.574 185.117,10.622 C185.032,10.537 184.879,10.469 184.709,10.469 C184.352,10.469 184.063,10.758 184.063,11.132 C184.063,11.353 184.165,11.54 184.318,11.642 C185.644,12.696 187.089,13.24 188.823,13.24 C191.186,13.24 192.886,11.914 192.886,9.874 L192.886,9.84 C192.886,8.67473391 192.383696,7.85828972 191.325459,7.27000005 L197,7.27000005 L197,6.07 L187.502247,6.07 C186.142371,5.59681753 185.78,5.0253637 185.78,4.162 L185.78,4.128 C185.78,3.057 186.766,2.207 188.313,2.207 C189.418,2.207 190.387,2.513 191.39,3.244 C191.509,3.329 191.628,3.363 191.781,3.363 C192.138,3.363 192.427,3.074 192.427,2.717 C192.427,2.462 192.274,2.275 192.138,2.173 C191.05,1.391 189.911,1 188.347,1 C186.086,1 184.437,2.377 184.437,4.247 L184.437,4.281 C184.437,5.01423597 184.61396,5.59681697 184.979539,6.07 L180,6.07 L180,7.27000005 L186.832437,7.27000005 Z" id="tooltip-strike-off"></path>
            </g>
        </g>
    </g>
</svg>