<?xml version="1.0" encoding="UTF-8" standalone="no"?>
<svg width="10px" height="12px" viewBox="0 0 10 12" version="1.1" xmlns="http://www.w3.org/2000/svg" xmlns:xlink="http://www.w3.org/1999/xlink">
    <!-- Generator: Sketch 44.1 (41455) - http://www.bohemiancoding.com/sketch -->
    <title>tooltip-b-off</title>
    <desc>Created with Sketch.</desc>
    <defs></defs>
    <g id="Page-23" stroke="none" stroke-width="1" fill="none" fill-rule="evenodd">
        <g id="Artboard" transform="translate(-154.000000, -24.000000)" fill="#EBF1F5">
            <g id="Tooltip-off" transform="translate(24.000000, 23.000000)">
                <path d="M130,11.846 L130,2.054 C130,1.459 130.459,1 131.054,1 L135.338,1 C136.698,1 137.769,1.374 138.449,2.054 C138.976,2.581 139.248,3.227 139.248,4.026 L139.248,4.06 C139.248,5.488 138.432,6.253 137.548,6.712 C138.942,7.188 139.911,7.987 139.911,9.602 L139.911,9.636 C139.911,11.761 138.16,12.9 135.508,12.9 L131.054,12.9 C130.459,12.9 130,12.441 130,11.846 Z M132.057,6.015 L134.913,6.015 C136.256,6.015 137.157,5.488 137.157,4.4 L137.157,4.366 C137.157,3.431 136.409,2.853 135.066,2.853 L132.057,2.853 L132.057,6.015 Z M132.057,11.047 L135.525,11.047 C136.953,11.047 137.82,10.486 137.82,9.415 L137.82,9.381 C137.82,8.378 137.021,7.783 135.372,7.783 L132.057,7.783 L132.057,11.047 Z" id="tooltip-b-off"></path>
            </g>
        </g>
    </g>
</svg>