<?xml version="1.0" encoding="UTF-8" standalone="no"?>
<svg width="5px" height="12px" viewBox="0 0 5 12" version="1.1" xmlns="http://www.w3.org/2000/svg" xmlns:xlink="http://www.w3.org/1999/xlink">
    <!-- Generator: Sketch 44.1 (41455) - http://www.bohemiancoding.com/sketch -->
    <title>tooltip-i-off</title>
    <desc>Created with Sketch.</desc>
    <defs></defs>
    <g id="Page-23" stroke="none" stroke-width="1" fill="none" fill-rule="evenodd">
        <g id="Artboard" transform="translate(-182.000000, -24.000000)" fill="#EBF1F5">
            <g id="Tooltip-off" transform="translate(24.000000, 23.000000)">
                <path d="M161.734375,11.984375 L161.617188,12.484375 C161.138018,12.6770843 160.75521,12.8111975 160.46875,12.8867188 C160.18229,12.96224 159.937501,13 159.734375,13 C159.317706,13 159.005209,12.8919282 158.796875,12.6757812 C158.588541,12.4596343 158.484375,12.1927099 158.484375,11.875 C158.484375,11.7552077 158.494792,11.630209 158.515625,11.5 C158.536458,11.369791 158.570312,11.2057302 158.617188,11.0078125 L159.445312,7.6875 C159.486979,7.50520742 159.527344,7.30989688 159.566406,7.1015625 C159.605469,6.89322812 159.625,6.71614656 159.625,6.5703125 C159.625,6.27864437 159.576823,6.0846359 159.480469,5.98828125 C159.384114,5.8919266 159.187501,5.84375 158.890625,5.84375 C158.776041,5.84375 158.623699,5.86197898 158.433594,5.8984375 C158.243489,5.93489602 158.098959,5.9661457 158,5.9921875 L158.117188,5.4921875 C158.52344,5.30989492 158.888019,5.17447961 159.210938,5.0859375 C159.533856,4.99739539 159.789062,4.953125 159.976562,4.953125 C160.403648,4.953125 160.713541,5.05468648 160.90625,5.2578125 C161.098959,5.46093852 161.195312,5.73437328 161.195312,6.078125 C161.195312,6.17187547 161.184896,6.29947836 161.164062,6.4609375 C161.143229,6.62239664 161.111979,6.78385336 161.070312,6.9453125 L160.234375,10.265625 C160.182291,10.468751 160.136719,10.6679678 160.097656,10.8632812 C160.058594,11.0585947 160.039062,11.2187494 160.039062,11.34375 C160.039062,11.6406265 160.105468,11.8437495 160.238281,11.953125 C160.371094,12.0625005 160.585936,12.1171875 160.882812,12.1171875 C160.981771,12.1171875 161.123697,12.1041668 161.308594,12.078125 C161.493491,12.0520832 161.635416,12.0208335 161.734375,11.984375 Z M162.289062,2 C162.289062,2.29687648 162.192709,2.55598848 162,2.77734375 C161.807291,2.99869902 161.56771,3.109375 161.28125,3.109375 C161.015624,3.109375 160.786459,3.0039073 160.59375,2.79296875 C160.401041,2.5820302 160.304688,2.34114719 160.304688,2.0703125 C160.304688,1.78385273 160.401041,1.53385523 160.59375,1.3203125 C160.786459,1.10676977 161.015624,1 161.28125,1 C161.578126,1 161.820312,1.10025941 162.007812,1.30078125 C162.195313,1.50130309 162.289062,1.73437367 162.289062,2 Z" id="tooltip-i-off"></path>
            </g>
        </g>
    </g>
</svg>