<?xml version="1.0" encoding="UTF-8" standalone="no"?>
<svg width="19px" height="13px" viewBox="0 0 19 13" version="1.1" xmlns="http://www.w3.org/2000/svg" xmlns:xlink="http://www.w3.org/1999/xlink">
    <!-- Generator: Sketch 44.1 (41455) - http://www.bohemiancoding.com/sketch -->
    <title>tooltip-h3-off</title>
    <desc>Created with Sketch.</desc>
    <defs></defs>
    <g id="Page-23" stroke="none" stroke-width="1" fill="none" fill-rule="evenodd">
        <g id="Artboard" transform="translate(-99.000000, -24.000000)" fill="#EBF1F5">
            <g id="Tooltip-off" transform="translate(24.000000, 23.000000)">
                <path d="M75,12.033 C75,12.611 75.459,13.07 76.054,13.07 C76.632,13.07 77.091,12.611 77.091,12.033 L77.091,7.97 L82.769,7.97 L82.769,12.033 C82.769,12.611 83.228,13.07 83.806,13.07 C84.401,13.07 84.86,12.611 84.86,12.033 L84.86,2.037 C84.86,1.459 84.401,1 83.806,1 C83.228,1 82.769,1.459 82.769,2.037 L82.769,6.032 L77.091,6.032 L77.091,2.037 C77.091,1.459 76.632,1 76.054,1 C75.459,1 75,1.459 75,2.037 L75,12.033 Z M90.811,13.117 C92.417,13.117 93.506,12.094 93.506,10.675 L93.506,10.653 C93.506,9.234 92.406,8.64 91.24,8.497 L93.055,6.616 C93.286,6.385 93.44,6.198 93.44,5.879 C93.44,5.516 93.154,5.285 92.769,5.285 L88.831,5.285 C88.501,5.285 88.237,5.549 88.237,5.879 C88.237,6.198 88.501,6.462 88.831,6.462 L91.625,6.462 L89.821,8.387 C89.612,8.596 89.535,8.761 89.535,8.937 C89.535,9.256 89.799,9.52 90.118,9.52 L90.393,9.52 C91.471,9.52 92.164,9.949 92.164,10.708 L92.164,10.73 C92.164,11.434 91.592,11.896 90.833,11.896 C90.118,11.896 89.568,11.643 89.084,11.159 C88.974,11.06 88.831,10.983 88.633,10.983 C88.281,10.983 87.984,11.28 87.984,11.632 C87.984,11.83 88.083,12.017 88.204,12.116 C88.831,12.721 89.678,13.117 90.811,13.117 Z" id="tooltip-h3-off"></path>
            </g>
        </g>
    </g>
</svg>