<?xml version="1.0" encoding="UTF-8" standalone="no"?>
<svg width="25px" height="14px" viewBox="0 0 25 14" version="1.1" xmlns="http://www.w3.org/2000/svg" xmlns:xlink="http://www.w3.org/1999/xlink">
    <!-- Generator: Sketch 44.1 (41455) - http://www.bohemiancoding.com/sketch -->
    <title>tooltip-code-off</title>
    <desc>Created with Sketch.</desc>
    <defs></defs>
    <g id="Page-23" stroke="none" stroke-width="1" fill="none" fill-rule="evenodd">
        <g id="Artboard" transform="translate(-392.000000, -23.000000)" fill="#EBF1F5">
            <g id="Tooltip-off" transform="translate(24.000000, 23.000000)">
                <path d="M374.54,10.605 C374.99,10.605 375.335,10.29 375.335,9.84 C375.335,9.495 375.14,9.225 374.825,9.075 L369.89,6.75 L374.825,4.44 C375.14,4.29 375.335,4.035 375.335,3.69 C375.335,3.255 374.99,2.91 374.6,2.925 C374.42,2.925 374.285,2.97 374.135,3.045 L368.72,5.7 C368.27,5.91 368,6.255 368,6.705 L368,6.825 C368,7.275 368.27,7.62 368.72,7.83 L374.135,10.485 C374.255,10.545 374.405,10.605 374.54,10.605 Z M376.595,13.35 C376.595,13.725 376.925,14.04 377.315,14.04 C377.615,14.04 377.825,13.89 377.96,13.62 L384.11,1.05 C384.14,0.96 384.185,0.825 384.185,0.69 C384.185,0.315 383.87,0 383.48,0 C383.18,0 382.955,0.15 382.82,0.42 L376.685,12.99 C376.64,13.08 376.595,13.215 376.595,13.35 Z M386.465,2.925 C386.015,2.925 385.67,3.24 385.67,3.69 C385.67,4.035 385.865,4.305 386.18,4.455 L391.115,6.78 L386.18,9.105 C385.865,9.24 385.67,9.495 385.67,9.84 C385.67,10.275 386.015,10.62 386.405,10.605 C386.585,10.605 386.72,10.56 386.87,10.485 L392.27,7.83 C392.735,7.62 393.005,7.275 393.005,6.825 L393.005,6.705 C393.005,6.255 392.735,5.91 392.27,5.7 L386.87,3.045 C386.75,2.985 386.6,2.925 386.465,2.925 Z" id="tooltip-code-off"></path>
            </g>
        </g>
    </g>
</svg>