<?xml version="1.0" encoding="UTF-8" standalone="no"?>
<svg width="12px" height="12px" viewBox="0 0 12 12" version="1.1" xmlns="http://www.w3.org/2000/svg" xmlns:xlink="http://www.w3.org/1999/xlink">
    <!-- Generator: Sketch 44.1 (41455) - http://www.bohemiancoding.com/sketch -->
    <title>tooltip-ul-off</title>
    <desc>Created with Sketch.</desc>
    <defs></defs>
    <g id="Page-23" stroke="none" stroke-width="1" fill="none" fill-rule="evenodd">
        <g id="Artboard" transform="translate(-328.000000, -24.000000)" fill="#EBF1F5">
            <g id="Tooltip-off" transform="translate(24.000000, 23.000000)">
                <path d="M304.75,1 L304.75,1 C305.164214,1 305.5,1.33578644 305.5,1.75 L305.5,1.75 C305.5,2.16421356 305.164214,2.5 304.75,2.5 C304.335786,2.5 304,2.16421356 304,1.75 L304,1.75 L304,1.75 C304,1.33578644 304.335786,1 304.75,1 L304.75,1 Z M304.75,6.25 L304.75,6.25 C305.164214,6.25 305.5,6.58578644 305.5,7 C305.5,7.41421356 305.164214,7.75 304.75,7.75 C304.335786,7.75 304,7.41421356 304,7 C304,6.58578644 304.335786,6.25 304.75,6.25 L304.75,6.25 Z M304.75,11.5 L304.75,11.5 C305.164214,11.5 305.5,11.8357864 305.5,12.25 C305.5,12.6642136 305.164214,13 304.75,13 C304.335786,13 304,12.6642136 304,12.25 C304,11.8357864 304.335786,11.5 304.75,11.5 L304.75,11.5 Z M308.25,1 L315.25,1 C315.664214,1 316,1.33578644 316,1.75 L316,1.75 C316,2.16421356 315.664214,2.5 315.25,2.5 L308.25,2.5 C307.835786,2.5 307.5,2.16421356 307.5,1.75 L307.5,1.75 L307.5,1.75 C307.5,1.33578644 307.835786,1 308.25,1 L308.25,1 Z M308.25,6.25 L315.25,6.25 C315.664214,6.25 316,6.58578644 316,7 C316,7.41421356 315.664214,7.75 315.25,7.75 L308.25,7.75 C307.835786,7.75 307.5,7.41421356 307.5,7 C307.5,6.58578644 307.835786,6.25 308.25,6.25 Z M308.25,11.5 L315.25,11.5 C315.664214,11.5 316,11.8357864 316,12.25 C316,12.6642136 315.664214,13 315.25,13 L308.25,13 C307.835786,13 307.5,12.6642136 307.5,12.25 C307.5,11.8357864 307.835786,11.5 308.25,11.5 Z" id="tooltip-ul-off"></path>
            </g>
        </g>
    </g>
</svg>