<?xml version="1.0" encoding="UTF-8" standalone="no"?>
<svg width="18px" height="18px" viewBox="0 0 18 18" version="1.1" xmlns="http://www.w3.org/2000/svg" xmlns:xlink="http://www.w3.org/1999/xlink">
    <!-- Generator: Sketch 42 (36781) - http://www.bohemiancoding.com/sketch -->
    <title>move-icon</title>
    <desc>Created with Sketch.</desc>
    <defs></defs>
    <g id="2.1.2-Edit" stroke="none" stroke-width="1" fill="none" fill-rule="evenodd">
        <g transform="translate(-195.000000, -154.000000)" id="Group-2" fill="#A1AAB3">
            <g transform="translate(195.000000, 153.000000)">
                <g id="Group-5">
                    <path d="M18.0024053,9.99939868 C18.0024053,9.99819603 18.0012026,9.99699339 18.0012026,9.99579074 C18.0048106,9.84185207 17.9494889,9.68791341 17.8316296,9.57125676 C17.8075767,9.5460012 17.7763079,9.53517739 17.748647,9.51593506 L15.402285,7.17077571 C15.1725797,6.94107035 14.8033674,6.94107035 14.5736621,7.17077571 C14.3451594,7.39927841 14.3451594,7.76969333 14.5736621,7.99939868 L15.9735418,9.39927841 L9.60192423,9.39927841 L9.60192423,3.02645821 L11.0030066,4.42754059 C11.2315093,4.65724594 11.6019242,4.65724594 11.8304269,4.42754059 C12.0601323,4.19903788 12.0601323,3.82742032 11.8304269,3.59891762 L9.48887553,1.25616356 C9.46843055,1.22730006 9.45760673,1.19603127 9.43114853,1.16957306 C9.31328924,1.05291642 9.15814793,0.997594708 9.00541191,1.00120265 C9.00420926,1.00120265 9.00300661,1 9.00180397,1 C9.00060132,1 8.99939868,1.00120265 8.99819603,1.00120265 C8.84425737,0.997594708 8.6903187,1.05291642 8.57245941,1.16957306 C8.54720385,1.19603127 8.53517739,1.22730006 8.51473241,1.25616356 L6.173181,3.59891762 C5.94467829,3.82742032 5.94467829,4.19903788 6.173181,4.42754059 C6.4016837,4.65724594 6.77209862,4.65724594 7.00180397,4.42754059 L8.4016837,3.02766085 L8.4016837,9.39927841 L2.03006615,9.39927841 L3.42994588,7.99939868 C3.65844859,7.76969333 3.65844859,7.39927841 3.42994588,7.17077571 C3.20024053,6.94107035 2.82982562,6.94107035 2.60132291,7.17077571 L0.254960914,9.51593506 C0.22730006,9.53517739 0.196031269,9.5460012 0.171978352,9.57125676 C0.0553217078,9.68671076 -0.00120264582,9.84064943 0.00120264582,9.99338545 C0.00120264582,9.99338545 0,9.99699339 0,9.99939868 C0,10.001804 0.00120264582,10.0042093 0.00120264582,10.0066146 C-0.00120264582,10.1593506 0.0553217078,10.3120866 0.171978352,10.4275406 C0.196031269,10.4527962 0.228502706,10.4648226 0.25616356,10.4840649 L2.60132291,12.8292243 C2.82982562,13.0565244 3.20024053,13.0565244 3.42994588,12.8292243 C3.65844859,12.5995189 3.65844859,12.229104 3.42994588,11.9993987 L2.03006615,10.5995189 L8.4016837,10.5995189 L8.4016837,16.9711365 L7.00180397,15.5724594 C6.77209862,15.3427541 6.4016837,15.3427541 6.173181,15.5724594 C5.94467829,15.7997595 5.94467829,16.171377 6.173181,16.3998797 L8.51473241,18.7426338 C8.53517739,18.7714973 8.54720385,18.8027661 8.57245941,18.8292243 C8.68911606,18.9458809 8.84305472,19.0012026 8.99579074,18.9987974 C8.99819603,18.9987974 8.99939868,19 9.00180397,19 C9.00420926,19 9.00661455,18.9987974 9.0078172,18.9987974 C9.16055322,19.0012026 9.31449188,18.9458809 9.43114853,18.8292243 C9.45760673,18.8027661 9.46843055,18.7714973 9.48887553,18.7426338 L11.8304269,16.3998797 C12.0601323,16.171377 12.0601323,15.7997595 11.8304269,15.5724594 C11.6019242,15.3427541 11.2315093,15.3427541 11.0030066,15.5724594 L9.60192423,16.9723391 L9.60192423,10.5995189 L15.9735418,10.5995189 L14.5736621,11.9993987 C14.3451594,12.229104 14.3451594,12.5995189 14.5736621,12.8292243 C14.8033674,13.0565244 15.1725797,13.0565244 15.402285,12.8292243 L17.7474444,10.4840649 C17.7763079,10.4648226 17.8075767,10.4527962 17.8316296,10.4275406 C17.9494889,10.3108839 18.0048106,10.1569453 18.0012026,10.0030066 L18.0024053,9.99939868 Z" id="move-icon"></path>
                </g>
            </g>
        </g>
    </g>
</svg>