<?xml version="1.0" encoding="UTF-8" standalone="no"?>
<svg width="26px" height="14px" viewBox="0 0 26 14" version="1.1" xmlns="http://www.w3.org/2000/svg" xmlns:xlink="http://www.w3.org/1999/xlink">
    <!-- Generator: Sketch 44.1 (41455) - http://www.bohemiancoding.com/sketch -->
    <title>row-code-off</title>
    <desc>Created with Sketch.</desc>
    <defs></defs>
    <g id="Page-23" stroke="none" stroke-width="1" fill="none" fill-rule="evenodd">
        <g id="Artboard" transform="translate(-198.000000, -95.000000)" fill="#797C7F">
            <g id="Row-off" transform="translate(24.000000, 95.000000)">
                <path d="M181.469211,10.605 C181.919211,10.605 182.264211,10.29 182.264211,9.84 C182.264211,9.495 182.069211,9.225 181.754211,9.075 L176.819211,6.75 L181.754211,4.44 C182.069211,4.29 182.264211,4.035 182.264211,3.69 C182.264211,3.255 181.919211,2.91 181.529211,2.925 C181.349211,2.925 181.214211,2.97 181.064211,3.045 L175.649211,5.7 C175.199211,5.91 174.929211,6.255 174.929211,6.705 L174.929211,6.825 C174.929211,7.275 175.199211,7.62 175.649211,7.83 L181.064211,10.485 C181.184211,10.545 181.334211,10.605 181.469211,10.605 Z M183.524211,13.35 C183.524211,13.725 183.854211,14.04 184.244211,14.04 C184.544211,14.04 184.754211,13.89 184.889211,13.62 L191.039211,1.05 C191.069211,0.96 191.114211,0.825 191.114211,0.69 C191.114211,0.315 190.799211,0 190.409211,0 C190.109211,0 189.884211,0.15 189.749211,0.42 L183.614211,12.99 C183.569211,13.08 183.524211,13.215 183.524211,13.35 Z M193.394211,2.925 C192.944211,2.925 192.599211,3.24 192.599211,3.69 C192.599211,4.035 192.794211,4.305 193.109211,4.455 L198.044211,6.78 L193.109211,9.105 C192.794211,9.24 192.599211,9.495 192.599211,9.84 C192.599211,10.275 192.944211,10.62 193.334211,10.605 C193.514211,10.605 193.649211,10.56 193.799211,10.485 L199.199211,7.83 C199.664211,7.62 199.934211,7.275 199.934211,6.825 L199.934211,6.705 C199.934211,6.255 199.664211,5.91 199.199211,5.7 L193.799211,3.045 C193.679211,2.985 193.529211,2.925 193.394211,2.925 Z" id="row-code-off"></path>
            </g>
        </g>
    </g>
</svg>