<?xml version="1.0" encoding="UTF-8" standalone="no"?>
<svg width="15px" height="13px" viewBox="0 0 15 13" version="1.1" xmlns="http://www.w3.org/2000/svg" xmlns:xlink="http://www.w3.org/1999/xlink">
    <!-- Generator: Sketch 44.1 (41455) - http://www.bohemiancoding.com/sketch -->
    <title>row-ol-off</title>
    <desc>Created with Sketch.</desc>
    <defs></defs>
    <g id="Page-23" stroke="none" stroke-width="1" fill="none" fill-rule="evenodd">
        <g id="Artboard" transform="translate(-165.000000, -96.000000)" fill="#797C7F">
            <g id="Row-off" transform="translate(24.000000, 95.000000)">
                <path d="M148.65,3.045 L155.15,3.045 C155.564214,3.045 155.9,3.38078644 155.9,3.795 C155.9,4.20921356 155.564214,4.545 155.15,4.545 L148.65,4.545 C148.235786,4.545 147.9,4.20921356 147.9,3.795 C147.9,3.38078644 148.235786,3.045 148.65,3.045 Z M148.65,10.045 L155.15,10.045 C155.564214,10.045 155.9,10.3807864 155.9,10.795 C155.9,11.2092136 155.564214,11.545 155.15,11.545 L148.65,11.545 C148.235786,11.545 147.9,11.2092136 147.9,10.795 C147.9,10.3807864 148.235786,10.045 148.65,10.045 Z M144.947,13.045 L141.839,13.045 L141.839,12.345 L143.736,10.084 C143.904001,9.88799902 143.988,9.68033443 143.988,9.461 C143.988,9.28366578 143.933167,9.1378339 143.8235,9.0235 C143.713833,8.90916609 143.563334,8.852 143.372,8.852 C143.171332,8.852 143.012667,8.91849933 142.896,9.0515 C142.779333,9.18450066 142.721,9.35133233 142.721,9.552 L141.825,9.552 C141.829667,9.11333114 141.967332,8.75866802 142.238,8.488 C142.508668,8.21733198 142.888998,8.082 143.379,8.082 C143.808335,8.082 144.165332,8.20683208 144.45,8.4565 C144.734668,8.70616791 144.877,9.03866459 144.877,9.454 C144.877,9.81800182 144.699668,10.2146645 144.345,10.644 L143.001,12.254 L144.947,12.254 L144.947,13.045 Z M144.163,6.045 L143.288,6.045 L143.288,2.216 L142.217,2.993 L142.217,2.041 L143.414,1.18 L144.163,1.18 L144.163,6.045 Z" id="row-ol-off"></path>
            </g>
        </g>
    </g>
</svg>