<?xml version="1.0" encoding="UTF-8" standalone="no"?>
<svg width="20px" height="13px" viewBox="0 0 20 13" version="1.1" xmlns="http://www.w3.org/2000/svg" xmlns:xlink="http://www.w3.org/1999/xlink">
    <!-- Generator: Sketch 44.1 (41455) - http://www.bohemiancoding.com/sketch -->
    <title>row-h3-off</title>
    <desc>Created with Sketch.</desc>
    <defs></defs>
    <g id="Page-23" stroke="none" stroke-width="1" fill="none" fill-rule="evenodd">
        <g id="Artboard" transform="translate(-98.000000, -96.000000)" fill="#797C7F">
            <g id="Row-off" transform="translate(24.000000, 95.000000)">
                <path d="M74.571,12.093 C74.571,12.671 75.03,13.13 75.625,13.13 C76.203,13.13 76.662,12.671 76.662,12.093 L76.662,8.03 L82.34,8.03 L82.34,12.093 C82.34,12.671 82.799,13.13 83.377,13.13 C83.972,13.13 84.431,12.671 84.431,12.093 L84.431,2.097 C84.431,1.519 83.972,1.06 83.377,1.06 C82.799,1.06 82.34,1.519 82.34,2.097 L82.34,6.092 L76.662,6.092 L76.662,2.097 C76.662,1.519 76.203,1.06 75.625,1.06 C75.03,1.06 74.571,1.519 74.571,2.097 L74.571,12.093 Z M90.382,13.177 C91.988,13.177 93.077,12.154 93.077,10.735 L93.077,10.713 C93.077,9.294 91.977,8.7 90.811,8.557 L92.626,6.676 C92.857,6.445 93.011,6.258 93.011,5.939 C93.011,5.576 92.725,5.345 92.34,5.345 L88.402,5.345 C88.072,5.345 87.808,5.609 87.808,5.939 C87.808,6.258 88.072,6.522 88.402,6.522 L91.196,6.522 L89.392,8.447 C89.183,8.656 89.106,8.821 89.106,8.997 C89.106,9.316 89.37,9.58 89.689,9.58 L89.964,9.58 C91.042,9.58 91.735,10.009 91.735,10.768 L91.735,10.79 C91.735,11.494 91.163,11.956 90.404,11.956 C89.689,11.956 89.139,11.703 88.655,11.219 C88.545,11.12 88.402,11.043 88.204,11.043 C87.852,11.043 87.555,11.34 87.555,11.692 C87.555,11.89 87.654,12.077 87.775,12.176 C88.402,12.781 89.249,13.177 90.382,13.177 Z" id="row-h3-off"></path>
            </g>
        </g>
    </g>
</svg>