<?xml version="1.0" encoding="UTF-8" standalone="no"?>
<svg width="17px" height="13px" viewBox="0 0 17 13" version="1.1" xmlns="http://www.w3.org/2000/svg" xmlns:xlink="http://www.w3.org/1999/xlink">
    <!-- Generator: Sketch 44.1 (41455) - http://www.bohemiancoding.com/sketch -->
    <title>row-h1-off</title>
    <desc>Created with Sketch.</desc>
    <defs></defs>
    <g id="Page-23" stroke="none" stroke-width="1" fill="none" fill-rule="evenodd">
        <g id="Artboard" transform="translate(-24.000000, -96.000000)" fill="#797C7F">
            <g id="Row-off" transform="translate(24.000000, 95.000000)">
                <path d="M0,12.093 C0,12.671 0.459,13.13 1.054,13.13 C1.632,13.13 2.091,12.671 2.091,12.093 L2.091,8.03 L7.769,8.03 L7.769,12.093 C7.769,12.671 8.228,13.13 8.806,13.13 C9.401,13.13 9.86,12.671 9.86,12.093 L9.86,2.097 C9.86,1.519 9.401,1.06 8.806,1.06 C8.228,1.06 7.769,1.519 7.769,2.097 L7.769,6.092 L2.091,6.092 L2.091,2.097 C2.091,1.519 1.632,1.06 1.054,1.06 C0.459,1.06 0,1.519 0,2.097 L0,12.093 Z M15.06,12.205 C15.06,12.715 15.48,13.12 15.975,13.12 C16.485,13.12 16.89,12.715 16.89,12.205 L16.89,3.325 C16.89,2.815 16.5,2.41 15.975,2.41 L15.945,2.41 C15.675,2.41 15.405,2.47 15.045,2.575 L13.455,3.085 C13.08,3.19 12.84,3.49 12.84,3.88 C12.84,4.3 13.215,4.66 13.65,4.66 C13.74,4.66 13.875,4.645 13.98,4.615 L15.06,4.285 L15.06,12.205 Z" id="row-h1-off"></path>
            </g>
        </g>
    </g>
</svg>