<?xml version="1.0" encoding="UTF-8" standalone="no"?>
<svg width="19px" height="20px" viewBox="0 0 19 20" version="1.1" xmlns="http://www.w3.org/2000/svg" xmlns:xlink="http://www.w3.org/1999/xlink">
    <!-- Generator: Sketch 44.1 (41455) - http://www.bohemiancoding.com/sketch -->
    <title>toc-settings</title>
    <desc>Created with Sketch.</desc>
    <defs>
        <polygon id="path-1" points="9.21196316 19.1578947 0 19.1578947 0 0.734631579 9.21196316 0.734631579 18.4239263 0.734631579 18.4239263 19.1578947 9.21196316 19.1578947"></polygon>
    </defs>
    <g id="Edit" stroke="none" stroke-width="1" fill="none" fill-rule="evenodd">
        <g id="2.1.1-View-Space---1280-Copy" transform="translate(-197.000000, -94.000000)">
            <g id="Space-pages" transform="translate(36.000000, 89.000000)">
                <g id="toc-settings" transform="translate(161.000000, 5.000000)">
                    <path d="M16.1706632,8.78757895 C15.8125579,8.68442105 15.5332947,8.40884211 15.4242421,8.04852632 C15.3026632,7.64915789 15.1427684,7.26010526 14.9482421,6.89389474 C14.7728737,6.56305263 14.7758211,6.17178947 14.9556105,5.84684211 L15.7152947,4.47705263 L14.6822421,3.444 L13.9896105,3.82863158 C13.9910842,3.90378947 14.0006632,3.97747368 14.0006632,4.05336842 C14.0006632,9.954 9.38213684,14.7375789 3.68487368,14.7375789 C3.48813684,14.7375789 3.29582105,14.7184211 3.10203158,14.7073684 L2.70708421,15.4198947 L3.74013684,16.4529474 L5.10992632,15.6932632 C5.27129474,15.6033684 5.45403158,15.5562105 5.63897895,15.5562105 C5.81876842,15.5562105 5.99855789,15.6011579 6.15771579,15.6858947 C6.52097895,15.8796842 6.90929474,16.0395789 7.31161053,16.1618947 C7.67118947,16.2709474 7.94750526,16.5502105 8.04992632,16.9083158 L8.48466316,18.4217895 L9.93845263,18.4217895 L10.3724526,16.9075789 C10.4748737,16.5494737 10.7511895,16.2702105 11.1107684,16.1611579 C11.5138211,16.0388421 11.9021368,15.8789474 12.2654,15.6851579 C12.4252947,15.6004211 12.6050842,15.5554737 12.7848737,15.5554737 C12.9690842,15.5554737 13.1525579,15.6026316 13.3139263,15.6925263 L14.6837158,16.4529474 L15.7167684,15.4198947 L14.9563474,14.0501053 C14.7758211,13.7251579 14.7736105,13.3331579 14.9497158,13.0023158 C15.1427684,12.6390526 15.3026632,12.2507368 15.4257158,11.8476842 C15.5347684,11.4881053 15.8140316,11.2125263 16.1721368,11.1101053 L17.6848737,10.6746316 L17.6848737,9.22084211 L16.1706632,8.78757895 Z" id="Fill-1" fill="#606366" opacity="0.149999991"></path>
                    <g id="Group-5" transform="translate(0.000000, 0.002211)">
                        <mask id="mask-2" fill="white">
                            <use xlink:href="#path-1"></use>
                        </mask>
                        <g id="Clip-4"></g>
                        <path d="M17.6848737,10.6724211 L16.1706632,11.1064211 C15.8125579,11.2088421 15.5332947,11.4851579 15.4242421,11.844 C15.3011895,12.2470526 15.1412947,12.6353684 14.9482421,12.9986316 C14.7721368,13.3294737 14.7743474,13.7214737 14.9548737,14.0464211 L15.7152947,15.4162105 L14.6822421,16.4492632 L13.3124526,15.6888421 C13.1510842,15.5989474 12.9683474,15.5517895 12.7834,15.5517895 C12.6036105,15.5517895 12.4238211,15.5967368 12.2639263,15.6814737 C11.9006632,15.8752632 11.5123474,16.0351579 11.1092947,16.1574737 C10.7497158,16.2665263 10.4734,16.5457895 10.3709789,16.9038947 L9.93771579,18.4195789 L8.48392632,18.4195789 L8.04992632,16.9053684 C7.94750526,16.5472632 7.67118947,16.268 7.31161053,16.1589474 C6.90929474,16.0366316 6.52097895,15.8767368 6.15771579,15.6829474 C5.99782105,15.5982105 5.81803158,15.5532632 5.63897895,15.5532632 C5.45403158,15.5532632 5.27129474,15.6004211 5.10992632,15.6903158 L3.74013684,16.45 L2.70708421,15.4169474 L3.46676842,14.0471579 C3.64729474,13.7222105 3.64950526,13.3309474 3.47413684,13.0008421 C3.27961053,12.6338947 3.11897895,12.2455789 2.99813684,11.8462105 C2.88908421,11.4858947 2.60982105,11.2095789 2.25171579,11.1071579 L0.737505263,10.6724211 L0.737505263,9.21863158 L2.25097895,8.78463158 C2.60908421,8.68221053 2.88834737,8.40589474 2.9974,8.04705263 C3.12045263,7.64326316 3.28034737,7.25494737 3.4734,6.89315789 C3.65024211,6.56231579 3.64729474,6.17031579 3.46676842,5.84463158 L2.70634737,4.47410526 L3.7394,3.44105263 L5.10918947,4.20073684 C5.27055789,4.29063158 5.45329474,4.33778947 5.63824211,4.33778947 C5.81803158,4.33778947 5.99782105,4.29284211 6.15697895,4.20810526 C6.52024211,4.01431579 6.90855789,3.85442105 7.31087368,3.73210526 C7.67045263,3.62305263 7.94676842,3.34378947 8.04918947,2.98568421 L8.48466316,1.47221053 L9.93845263,1.47221053 L10.3724526,2.98642105 C10.4748737,3.34452632 10.7511895,3.62305263 11.1100316,3.73284211 C11.5138211,3.85589474 11.9028737,4.01578947 12.2646632,4.20884211 C12.4245579,4.29431579 12.6043474,4.33926316 12.7841368,4.33926316 C12.9683474,4.33926316 13.1518211,4.29210526 13.3131895,4.20221053 L14.6837158,3.44178947 L15.7167684,4.47484211 L14.9570842,5.84463158 C14.7765579,6.16957895 14.7743474,6.56084211 14.9497158,6.89168421 C15.1442421,7.25863158 15.3048737,7.64694737 15.4257158,8.04631579 C15.5347684,8.40663158 15.8140316,8.68221053 16.1721368,8.78536842 L17.6848737,9.21936842 L17.6848737,10.6724211 Z M17.8882421,8.51052632 L16.3740316,8.07652632 C16.2554,8.04263158 16.1655053,7.94978947 16.1294,7.83189474 C15.9930842,7.38315789 15.8147684,6.95210526 15.5988737,6.54536842 C15.5414,6.43705263 15.5399263,6.30884211 15.5996105,6.20126316 L16.3592947,4.83147368 C16.5191895,4.54410526 16.4683474,4.186 16.2362421,3.95315789 L15.2031895,2.92010526 C15.0609789,2.77863158 14.8730842,2.70421053 14.6815053,2.70421053 C14.5591895,2.70421053 14.4361368,2.73515789 14.3241368,2.79705263 L12.9536105,3.55747368 C12.8998211,3.58694737 12.8408737,3.60168421 12.7826632,3.60168421 C12.7237158,3.60168421 12.6640316,3.58694737 12.6095053,3.55821053 C12.2027684,3.34157895 11.7717158,3.164 11.3237158,3.02768421 C11.2058211,2.99157895 11.1137158,2.90168421 11.0798211,2.78305263 L10.6458211,1.26884211 C10.5551895,0.952736842 10.2663474,0.734631579 9.93771579,0.734631579 L8.48392632,0.734631579 C8.15529474,0.734631579 7.86645263,0.952 7.77582105,1.26884211 L7.34182105,2.78305263 C7.30792632,2.90168421 7.21508421,2.99157895 7.09718947,3.02768421 C6.64845263,3.164 6.21813684,3.34157895 5.8114,3.55821053 C5.75687368,3.58694737 5.69792632,3.60168421 5.63824211,3.60168421 C5.57929474,3.60168421 5.52034737,3.58694737 5.46655789,3.55747368 L4.09676842,2.79705263 C3.98476842,2.73515789 3.86171579,2.70421053 3.7394,2.70421053 C3.54855789,2.70421053 3.35992632,2.77863158 3.21771579,2.92010526 L2.18466316,3.95315789 C1.95182105,4.186 1.90171579,4.54410526 2.06161053,4.83147368 L2.82203158,6.202 C2.88171579,6.30957895 2.88024211,6.43778947 2.82276842,6.54684211 C2.60613684,6.95357895 2.42855789,7.38389474 2.29224211,7.83263158 C2.25613684,7.95052632 2.16624211,8.04336842 2.04761053,8.07726316 L0.534136842,8.51126316 C0.218031579,8.60189474 -7.36842105e-05,8.89073684 -7.36842105e-05,9.21936842 L-7.36842105e-05,10.6731579 C-7.36842105e-05,11.0017895 0.218031579,11.2906316 0.534136842,11.3812632 L2.04834737,11.8152632 C2.16697895,11.8491579 2.25687368,11.9412632 2.29297895,12.0598947 C2.42929474,12.5086316 2.60761053,12.9396842 2.82350526,13.3464211 C2.88097895,13.4547368 2.88171579,13.5829474 2.82276842,13.6905263 L2.06308421,15.0603158 C1.90318947,15.3476842 1.95403158,15.7057895 2.18613684,15.9386316 L3.21918947,16.9716842 C3.36066316,17.1131579 3.54929474,17.1875789 3.74087368,17.1875789 C3.86318947,17.1875789 3.98624211,17.1573684 4.09824211,17.0954737 L5.46803158,16.3350526 C5.52182105,16.3055789 5.58076842,16.2908421 5.63971579,16.2908421 C5.69866316,16.2908421 5.75834737,16.3055789 5.81287368,16.3343158 C6.21961053,16.5509474 6.64992632,16.7285263 7.09866316,16.8648421 C7.21655789,16.9009474 7.3094,16.9908421 7.34329474,17.1094737 L7.77729474,18.6236842 C7.86792632,18.9397895 8.15676842,19.1578947 8.4854,19.1578947 L9.93918947,19.1578947 C10.2678211,19.1578947 10.5566632,18.9405263 10.6472947,18.6236842 L11.0812947,17.1094737 C11.1151895,16.9908421 11.2080316,16.9009474 11.3259263,16.8648421 C11.7746632,16.7285263 12.2049789,16.5509474 12.6124526,16.3343158 C12.6669789,16.3055789 12.7259263,16.2908421 12.7856105,16.2908421 C12.8445579,16.2908421 12.9035053,16.3055789 12.9572947,16.3350526 L14.3270842,17.0954737 C14.4390842,17.1573684 14.5621368,17.1875789 14.6844526,17.1875789 C14.8752947,17.1875789 15.0639263,17.1131579 15.2054,16.9716842 L16.2384526,15.9386316 C16.4705579,15.7065263 16.5214,15.3476842 16.3615053,15.0603158 L15.6018211,13.6897895 C15.5421368,13.5822105 15.5436105,13.454 15.6010842,13.3456842 C15.8177158,12.9389474 15.9952947,12.5078947 16.1316105,12.0591579 C16.1677158,11.9412632 16.2576105,11.8491579 16.3762421,11.8145263 L17.8904526,11.3812632 C18.2065579,11.2906316 18.4239263,11.0017895 18.4239263,10.6731579 L18.4239263,9.21936842 C18.4217158,8.89 18.2036105,8.60115789 17.8882421,8.51052632 L17.8882421,8.51052632 Z" id="Fill-3" fill="#606366" mask="url(#mask-2)"></path>
                    </g>
                    <path d="M9.21118947,13.2638947 C7.38013684,13.2638947 5.8954,11.7791579 5.8954,9.94810526 C5.8954,8.11705263 7.38013684,6.63231579 9.21118947,6.63231579 C11.0422421,6.63231579 12.5269789,8.11705263 12.5269789,9.94810526 C12.5269789,11.7791579 11.0422421,13.2638947 9.21118947,13.2638947 M9.21118947,5.89547368 C6.97634737,5.89547368 5.15855789,7.71326316 5.15855789,9.94810526 C5.15855789,12.1829474 6.97634737,14.0007368 9.21118947,14.0007368 C11.4460316,14.0007368 13.2638211,12.1829474 13.2638211,9.94810526 C13.2638211,7.71326316 11.4460316,5.89547368 9.21118947,5.89547368" id="Fill-6" fill="#606366"></path>
                </g>
            </g>
        </g>
    </g>
</svg>