<?xml version="1.0" encoding="UTF-8" standalone="no"?>
<svg width="22px" height="10px" viewBox="0 0 22 10" version="1.1" xmlns="http://www.w3.org/2000/svg" xmlns:xlink="http://www.w3.org/1999/xlink">
    <!-- Generator: Sketch 44.1 (41455) - http://www.bohemiancoding.com/sketch -->
    <title>tooltip-link-on</title>
    <desc>Created with Sketch.</desc>
    <defs></defs>
    <g id="Page-23" stroke="none" stroke-width="1" fill="none" fill-rule="evenodd">
        <g id="Artboard" transform="translate(-267.000000, -61.000000)" fill-rule="nonzero" fill="#02B875">
            <g id="Tooltip-on" transform="translate(24.000000, 59.000000)">
                <path d="M252.989732,4.75 L251.47926,4.75 C251.360241,4.04057166 250.743249,3.5 250,3.5 L246,3.5 C245.171573,3.5 244.5,4.17157288 244.5,5 L244.5,9 C244.5,9.82842712 245.171573,10.5 246,10.5 L250,10.5 C250.743249,10.5 251.360241,9.95942834 251.47926,9.25 L252.989732,9.25 C252.862694,10.7898826 251.572666,12 250,12 L246,12 C244.343146,12 243,10.6568542 243,9 L243,5 C243,3.34314575 244.343146,2 246,2 L250,2 C251.572666,2 252.862694,3.21011737 252.989732,4.75 Z M255.010268,9.25 L256.52074,9.25 C256.639759,9.95942834 257.256751,10.5 258,10.5 L262,10.5 C262.828427,10.5 263.5,9.82842712 263.5,9 L263.5,5 C263.5,4.17157288 262.828427,3.5 262,3.5 L258,3.5 C257.256751,3.5 256.639759,4.04057166 256.52074,4.75 L255.010268,4.75 C255.137306,3.21011737 256.427334,2 258,2 L262,2 C263.656854,2 265,3.34314575 265,5 L265,9 C265,10.6568542 263.656854,12 262,12 L258,12 C256.427334,12 255.137306,10.7898826 255.010268,9.25 Z M248.25,6.25 L259.75,6.25 C260.164214,6.25 260.5,6.58578644 260.5,7 C260.5,7.41421356 260.164214,7.75 259.75,7.75 L248.25,7.75 C247.835786,7.75 247.5,7.41421356 247.5,7 C247.5,6.58578644 247.835786,6.25 248.25,6.25 Z" id="tooltip-link-on"></path>
            </g>
        </g>
    </g>
</svg>