<?xml version="1.0" encoding="UTF-8" standalone="no"?>
<svg width="15px" height="12px" viewBox="0 0 15 12" version="1.1" xmlns="http://www.w3.org/2000/svg" xmlns:xlink="http://www.w3.org/1999/xlink">
    <!-- Generator: Sketch 44.1 (41455) - http://www.bohemiancoding.com/sketch -->
    <title>tooltip-ol-on</title>
    <desc>Created with Sketch.</desc>
    <defs></defs>
    <g id="Page-23" stroke="none" stroke-width="1" fill="none" fill-rule="evenodd">
        <g id="Artboard" transform="translate(-359.000000, -60.000000)" fill="#02B875">
            <g id="Tooltip-on" transform="translate(24.000000, 59.000000)">
                <path d="M341.825,2.865 L348.325,2.865 C348.739214,2.865 349.075,3.20078644 349.075,3.615 C349.075,4.02921356 348.739214,4.365 348.325,4.365 L341.825,4.365 C341.410786,4.365 341.075,4.02921356 341.075,3.615 C341.075,3.20078644 341.410786,2.865 341.825,2.865 Z M341.825,9.865 L348.325,9.865 C348.739214,9.865 349.075,10.2007864 349.075,10.615 C349.075,11.0292136 348.739214,11.365 348.325,11.365 L341.825,11.365 C341.410786,11.365 341.075,11.0292136 341.075,10.615 C341.075,10.2007864 341.410786,9.865 341.825,9.865 Z M338.122,12.865 L335.014,12.865 L335.014,12.165 L336.911,9.904 C337.079001,9.70799902 337.163,9.50033443 337.163,9.281 C337.163,9.10366578 337.108167,8.95783391 336.9985,8.8435 C336.888833,8.72916609 336.738334,8.672 336.547,8.672 C336.346332,8.672 336.187667,8.73849934 336.071,8.8715 C335.954333,9.00450067 335.896,9.17133233 335.896,9.372 L335,9.372 C335.004667,8.93333114 335.142332,8.57866802 335.413,8.308 C335.683668,8.03733198 336.063998,7.902 336.554,7.902 C336.983335,7.902 337.340332,8.02683209 337.625,8.2765 C337.909668,8.52616791 338.052,8.85866459 338.052,9.274 C338.052,9.63800182 337.874668,10.0346645 337.52,10.464 L336.176,12.074 L338.122,12.074 L338.122,12.865 Z M337.338,5.865 L336.463,5.865 L336.463,2.036 L335.392,2.813 L335.392,1.861 L336.589,1 L337.338,1 L337.338,5.865 Z" id="tooltip-ol-on"></path>
            </g>
        </g>
    </g>
</svg>