<?xml version="1.0" encoding="UTF-8" standalone="no"?>
<svg width="16px" height="18px" viewBox="0 0 16 18" version="1.1" xmlns="http://www.w3.org/2000/svg" xmlns:xlink="http://www.w3.org/1999/xlink">
    <!-- Generator: Sketch 44.1 (41455) - http://www.bohemiancoding.com/sketch -->
    <title>tree-delete</title>
    <desc>Created with Sketch.</desc>
    <defs></defs>
    <g id="Page-23" stroke="none" stroke-width="1" fill="none" fill-rule="evenodd">
        <g id="2.1.1-View-Space---1280-Copy-8" transform="translate(-174.000000, -195.000000)" fill="#606366">
            <g id="Sidebar" transform="translate(0.000000, 92.000000)">
                <g id="tree-delete" transform="translate(174.000000, 103.000000)">
                    <path d="M12.80565,16.892925 C12.79515,17.093175 12.6309,17.249925 12.43065,17.249925 L3.35715,17.249925 C3.15765,17.249925 2.99265,17.093175 2.98215,16.893675 L2.2884,2.999925 L13.50015,2.999925 L12.80565,16.892925 Z M5.01465,1.034175 C5.05665,0.866925 5.2059,0.749925 5.3784,0.749925 L10.3719,0.749925 C10.54365,0.749925 10.69365,0.866925 10.73565,1.034175 L11.0394,2.249925 L4.7109,2.249925 L5.01465,1.034175 Z M15.37515,2.249925 L11.81265,2.249925 L11.46315,0.851925 C11.3379,0.350925 10.8879,-7.5e-05 10.3719,-7.5e-05 L5.3784,-7.5e-05 C4.8624,-7.5e-05 4.4124,0.350925 4.28715,0.851925 L3.93765,2.249925 L0.37515,2.249925 C0.16815,2.249925 0.00015,2.417925 0.00015,2.624925 C0.00015,2.831925 0.16815,2.999925 0.37515,2.999925 L1.53765,2.999925 L2.23365,16.931925 C2.2644,17.531175 2.75865,17.999925 3.35715,17.999925 L12.43065,17.999925 C13.0299,17.999925 13.5234,17.531175 13.55415,16.931175 L14.2509,2.999925 L15.37515,2.999925 C15.58215,2.999925 15.75015,2.831925 15.75015,2.624925 C15.75015,2.417925 15.58215,2.249925 15.37515,2.249925 L15.37515,2.249925 Z" id="Fill-1"></path>
                    <path d="M5.625,6.75 C5.418,6.75 5.25,6.918 5.25,7.125 L5.25,13.125 C5.25,13.332 5.418,13.5 5.625,13.5 C5.832,13.5 6,13.332 6,13.125 L6,7.125 C6,6.918 5.832,6.75 5.625,6.75" id="Fill-4"></path>
                    <path d="M10.125,6.75 C9.918,6.75 9.75,6.918 9.75,7.125 L9.75,13.125 C9.75,13.332 9.918,13.5 10.125,13.5 C10.332,13.5 10.5,13.332 10.5,13.125 L10.5,7.125 C10.5,6.918 10.332,6.75 10.125,6.75" id="Fill-6"></path>
                    <path d="M7.875,6 C7.668,6 7.5,6.168 7.5,6.375 L7.5,13.875 C7.5,14.082 7.668,14.25 7.875,14.25 C8.082,14.25 8.25,14.082 8.25,13.875 L8.25,6.375 C8.25,6.168 8.082,6 7.875,6" id="Fill-8"></path>
                </g>
            </g>
        </g>
    </g>
</svg>