<?xml version="1.0" encoding="UTF-8" standalone="no"?>
<svg width="18px" height="18px" viewBox="0 0 18 18" version="1.1" xmlns="http://www.w3.org/2000/svg" xmlns:xlink="http://www.w3.org/1999/xlink">
    <!-- Generator: Sketch 42 (36781) - http://www.bohemiancoding.com/sketch -->
    <title>expand-icon</title>
    <desc>Created with Sketch.</desc>
    <defs></defs>
    <g id="Page-1" stroke="none" stroke-width="1" fill="none" fill-rule="evenodd">
        <g id="6.-Spaces-overlay" transform="translate(-944.000000, -447.000000)" fill="#66737F">
            <g id="Spaces-overlay" transform="translate(850.000000, 64.000000)">
                <g id="Expand" transform="translate(94.000000, 374.000000)">
                    <path d="M7.486875,18.7245 L3.375,22.83525 L3.375,19.6875 C3.375,19.377 3.123,19.125 2.8125,19.125 C2.502,19.125 2.25,19.377 2.25,19.6875 L2.25,24.18525 C2.24775,24.330375 2.300625,24.476625 2.410875,24.589125 C2.523375,24.7005 2.671875,24.753375 2.81925,24.75 L7.3125,24.75 C7.623,24.75 7.875,24.499125 7.875,24.1875 C7.875,23.877 7.623,23.625 7.3125,23.625 L4.16475,23.625 L8.276625,19.51425 C8.49375,19.296 8.49375,18.941625 8.276625,18.7245 C8.058375,18.50625 7.704,18.50625 7.486875,18.7245 L7.486875,18.7245 Z M16.875,24.75 C16.875,25.371 16.371,25.875 15.75,25.875 L2.25,25.875 C1.629,25.875 1.125,25.371 1.125,24.75 L1.125,11.25 C1.125,10.630125 1.629,10.125 2.25,10.125 L15.75,10.125 C16.371,10.125 16.875,10.630125 16.875,11.25 L16.875,24.75 Z M15.75,9 L2.25,9 C1.006875,9 0,10.008 0,11.25 L0,24.75 C0,25.993125 1.006875,27 2.25,27 L15.75,27 C16.993125,27 18,25.993125 18,24.75 L18,11.25 C18,10.008 16.993125,9 15.75,9 L15.75,9 Z M15.18075,11.25 L10.6875,11.25 C10.377,11.25 10.125,11.502 10.125,11.8125 C10.125,12.124125 10.377,12.375 10.6875,12.375 L13.83525,12.375 L9.723375,16.486875 C9.50625,16.705125 9.50625,17.0595 9.723375,17.276625 C9.94275,17.494875 10.296,17.494875 10.513125,17.276625 L14.625,13.165875 L14.625,16.3125 C14.625,16.624125 14.877,16.875 15.1875,16.875 C15.498,16.875 15.75,16.624125 15.75,16.3125 L15.75,11.820375 C15.753375,11.673 15.701625,11.5245 15.589125,11.412 C15.476625,11.2995 15.328125,11.24775 15.18075,11.25 L15.18075,11.25 Z" id="expand-icon"></path>
                </g>
            </g>
        </g>
    </g>
</svg>