<?xml version="1.0" encoding="UTF-8" standalone="no"?>
<svg width="11px" height="16px" viewBox="0 0 11 16" version="1.1" xmlns="http://www.w3.org/2000/svg" xmlns:xlink="http://www.w3.org/1999/xlink">
    <!-- Generator: Sketch 41.2 (35397) - http://www.bohemiancoding.com/sketch -->
    <title>edit-icon</title>
    <desc>Created with Sketch.</desc>
    <defs></defs>
    <g id="Page-3" stroke="none" stroke-width="1" fill="none" fill-rule="evenodd">
        <g id="White-Copy-9" transform="translate(-1139.000000, -526.000000)" fill="#525966">
            <g id="Group-19" transform="translate(1120.000000, 510.000000)">
                <path d="M28.033697,19.1186273 L27.7956364,19.5336576 L25.3204848,18.0946273 L25.5585455,17.6791121 C25.9532121,16.9906273 26.8273939,16.7554758 27.5105455,17.1525667 C28.1941818,17.5501424 28.4278788,18.4301424 28.033697,19.1186273 L28.033697,19.1186273 Z M23.9847273,26.1809303 L23.9847273,26.1809303 L23.0324848,27.8420212 L20.5568485,26.4034758 L21.5095758,24.7419 L24.8443636,18.9256576 L27.3190303,20.3646879 L23.9847273,26.1809303 Z M19.8892121,30.4466273 L20.0807273,27.2340212 L22.4802424,28.6289303 L22.5558788,28.6730515 L19.8892121,30.4466273 Z M27.9866667,16.3220212 C26.8477576,15.6592334 25.3912727,16.0524455 24.7333333,17.199597 L24.4952727,17.6146273 L24.0191515,18.4456576 L19.9701818,25.5079606 C19.969697,25.5084455 19.969697,25.5094152 19.9692121,25.5099 L19.2555152,26.7540212 L21.2637576,27.9215364 C21.2647273,27.9225061 21.265697,27.9229909 21.2666667,27.9234758 L19.2555152,26.7540212 L19,31.0376576 L19.8252121,31.5171727 L23.3806061,29.1525667 L24.8099394,26.6609303 L24.8094545,26.6609303 L28.8584242,19.5981424 C29.5168485,18.4509909 29.1260606,16.9843243 27.9866667,16.3220212 L27.9866667,16.3220212 Z" id="edit-icon"></path>
            </g>
        </g>
    </g>
</svg>