<?xml version="1.0" encoding="UTF-8" standalone="no"?>
<svg width="18px" height="18px" viewBox="0 0 18 18" version="1.1" xmlns="http://www.w3.org/2000/svg" xmlns:xlink="http://www.w3.org/1999/xlink">
    <!-- Generator: Sketch 42 (36781) - http://www.bohemiancoding.com/sketch -->
    <title>edit-icon</title>
    <desc>Created with Sketch.</desc>
    <defs></defs>
    <g id="2.1.1-View" stroke="none" stroke-width="1" fill="none" fill-rule="evenodd">
        <g transform="translate(-1164.000000, -581.000000)" id="Page-actions" fill="#8A9199">
            <g transform="translate(1134.000000, 566.000000)">
                <path d="M45.0335449,24.2340634 C44.9468443,24.3331498 44.8652106,24.4339252 44.7706281,24.5285077 C42.2405472,27.0614035 38.7753385,28.3568455 36.7834768,27.0158013 L46.9691074,16.8200368 C47.05806,17.7540387 47.1137961,19.5150741 46.6014744,21.2946882 L42.806353,22.5614176 L45.0335449,24.2340634 Z M35.9564433,21.9961748 L36.9135277,22.9543852 L37.699463,22.16845 L36.4597571,20.9276181 C36.6393512,20.5999575 36.837524,20.2734228 37.0582164,19.952518 L38.4848352,21.3819518 L39.2707705,20.5948905 L37.7366204,19.0596145 C37.9730765,18.7769931 38.2202295,18.4994386 38.4848352,18.2348329 C40.8949991,15.8218541 44.6422662,15.8899759 46.1792313,16.0363536 L35.9981046,26.2287401 C35.2628385,25.1303449 35.3287085,23.586061 35.9564433,21.9961748 L35.9564433,21.9961748 Z M47.9132431,15.087714 C47.9132431,15.087714 40.8420779,14.3006528 37.699463,17.4477717 C34.7353161,20.4158595 33.3700633,24.5814288 35.2014725,27.0264981 L30,32.2336005 L30.7853722,33.0200988 L35.9868448,27.8135593 C38.4279731,29.6494725 42.5912905,28.2842197 45.5565634,25.3155689 C45.6860513,25.184955 45.8065313,25.0453333 45.9236334,24.9023336 L45.949531,24.9220383 L45.9861254,24.8302708 C46.1161763,24.6664404 46.2383453,24.4947282 46.3520695,24.3168231 L46.2068178,24.2774137 L46.4072426,23.7746629 L44.7706281,22.9543852 L47.0372293,22.1988515 L47.363764,21.3819518 L47.5349133,21.3819518 C48.2701793,18.3159036 47.9132431,15.087714 47.9132431,15.087714 L47.9132431,15.087714 Z" id="edit-icon"></path>
            </g>
        </g>
    </g>
</svg>