<?xml version="1.0" encoding="UTF-8" standalone="no"?>
<svg width="16px" height="16px" viewBox="0 0 16 16" version="1.1" xmlns="http://www.w3.org/2000/svg" xmlns:xlink="http://www.w3.org/1999/xlink">
    <!-- Generator: Sketch 41.2 (35397) - http://www.bohemiancoding.com/sketch -->
    <title>members-icon</title>
    <desc>Created with Sketch.</desc>
    <defs></defs>
    <g id="Page-3" stroke="none" stroke-width="1" fill="none" fill-rule="evenodd">
        <g id="White-Copy-9" transform="translate(-1137.000000, -466.000000)" fill="#525966">
            <g id="Group-13" transform="translate(1120.000000, 450.000000)">
                <path d="M29.37,29.464 C29.614,29.241 29.781,28.94 29.999,28.691 C29.91,28.509 29.808,28.346 29.69,28.226 C29.352,27.88 26.739,27.072 26.5,27.001 C27.686,26.16 28.5,24.693 28.5,23.001 C28.5,21.001 27.891,19.001 25.007,19 C22.247,18.999 21.5,21.001 21.5,23.001 C21.5,24.691 22.356,26.163 23.54,27.005 C23.39,27.05 20.676,27.86 20.316,28.226 C20.197,28.346 20.094,28.511 20.004,28.693 C20.231,28.954 20.365,29.224 20.612,29.45 C19.02,28.167 18,26.204 18,24 C18,20.135 21.135,17.001 25,17.001 C28.866,17.001 32,20.135 32,24 C32,26.212 30.972,28.181 29.37,29.464 L29.37,29.464 Z M24.951,30.987 L24.748,30.987 C23.209,30.933 21.798,30.385 20.667,29.491 C20.776,29.198 21.064,28.918 21.241,28.813 C21.712,28.53 23.537,27.721 23.95,27.538 L24,27.001 L24,26.001 C23.027,25.487 22.5,24.401 22.5,23.001 C22.5,20.501 22.993,19.997 25,19.997 C27.007,19.997 27.5,20.501 27.5,23.001 C27.5,24.401 26.974,25.487 26,26.001 L26,27.001 L26.05,27.536 C26.472,27.712 28.422,28.528 28.895,28.813 C29.059,28.911 29.255,29.217 29.334,29.49 C28.141,30.433 26.638,31 25,31 C25.085,31 25.167,30.991 25.251,30.987 L24.951,30.987 Z M25,16 C20.582,16 17,19.582 17,24 C17,28.419 20.582,32 25,32 C29.419,32 33,28.419 33,24 C33,19.582 29.419,16 25,16 L25,16 Z" id="members-icon"></path>
            </g>
        </g>
    </g>
</svg>