<?xml version="1.0" encoding="UTF-8" standalone="no"?>
<svg width="18px" height="18px" viewBox="0 0 18 18" version="1.1" xmlns="http://www.w3.org/2000/svg" xmlns:xlink="http://www.w3.org/1999/xlink">
    <!-- Generator: Sketch 42 (36781) - http://www.bohemiancoding.com/sketch -->
    <title>settings-icon</title>
    <desc>Created with Sketch.</desc>
    <defs></defs>
    <g id="2.1.2-Edit" stroke="none" stroke-width="1" fill="none" fill-rule="evenodd">
        <g transform="translate(-253.000000, -46.000000)" id="Sidebar" fill="#A1AAB3">
            <g>
                <path d="M268.084,56.123875 C267.923125,56.9935 267.571,57.793375 267.08725,58.495375 L267.56875,58.976875 C268.008625,59.417875 268.008625,60.128875 267.56875,60.567625 C267.128875,61.0075 266.417875,61.0075 265.978,60.567625 L265.495375,60.085 C264.7945,60.56875 263.994625,60.920875 263.125,61.080625 L263.125,61.748875 C263.125,62.371 262.622125,62.875 262,62.875 C261.379,62.875 260.875,62.371 260.875,61.748875 L260.875,61.080625 C260.005375,60.920875 259.2055,60.56875 258.504625,60.085 L258.023125,60.567625 C257.58325,61.0075 256.871125,61.0075 256.432375,60.567625 C255.9925,60.128875 255.9925,59.417875 256.432375,58.976875 L256.91275,58.4965 C256.429,57.7945 256.07575,56.99575 255.916,56.123875 L255.25,56.123875 C254.629,56.123875 254.125,55.621 254.125,54.998875 C254.125,54.377875 254.629,53.875 255.25,53.875 L255.916,53.875 C256.07575,53.00425 256.427875,52.204375 256.91275,51.502375 L256.432375,51.022 C255.9925,50.582125 255.9925,49.87 256.432375,49.43125 C256.871125,48.991375 257.58325,48.991375 258.023125,49.43125 L258.504625,49.91275 C259.2055,49.43125 260.005375,49.079125 260.875,48.919375 L260.875,48.25 C260.875,47.627875 261.379,47.125 262,47.125 C262.622125,47.125 263.125,47.627875 263.125,48.25 L263.125,48.91825 C263.994625,49.078 264.7945,49.430125 265.495375,49.91275 L265.978,49.43125 C266.417875,48.991375 267.128875,48.991375 267.56875,49.43125 C268.008625,49.87 268.008625,50.582125 267.56875,51.022 L267.08725,51.5035 C267.571,52.2055 267.92425,53.00425 268.084,53.875 L268.75,53.875 C269.372125,53.875 269.875,54.377875 269.875,54.998875 C269.875,55.621 269.372125,56.123875 268.75,56.123875 L268.084,56.123875 Z M271,54.998875 C271,53.831125 270.1045,52.8805 268.96375,52.7725 C268.84,52.38325 268.681375,52.010875 268.498,51.65425 C269.230375,50.77 269.192125,49.463875 268.364125,48.635875 C267.536125,47.80675 266.23,47.769625 265.34575,48.502 C264.989125,48.3175 264.61675,48.158875 264.2275,48.035125 C264.118375,46.894375 263.168875,46 262,46 C260.831125,46 259.8805,46.894375 259.771375,48.035125 C259.38325,48.158875 259.010875,48.3175 258.65425,48.502 C257.77,47.769625 256.463875,47.80675 255.637,48.635875 C254.809,49.463875 254.77075,50.768875 255.502,51.653125 C255.3175,52.010875 255.16,52.38325 255.035125,52.7725 C253.8955,52.8805 253,53.831125 253,54.998875 C253,56.168875 253.8955,57.118375 255.035125,57.226375 C255.16,57.615625 255.318625,57.988 255.502,58.34575 C254.77075,59.23 254.809,60.535 255.637,61.363 C256.463875,62.192125 257.77,62.22925 258.65425,61.496875 C259.010875,61.6825 259.38325,61.84 259.771375,61.96375 C259.8805,63.1045 260.831125,63.998875 262,63.998875 C263.168875,63.998875 264.118375,63.1045 264.2275,61.96375 C264.61675,61.84 264.989125,61.68025 265.34575,61.496875 C266.23,62.22925 267.536125,62.192125 268.364125,61.363 C269.192125,60.535 269.230375,59.228875 268.496875,58.344625 C268.681375,57.986875 268.84,57.615625 268.96375,57.226375 C270.1045,57.118375 271,56.168875 271,54.998875 L271,54.998875 Z M262,57.248875 C260.756875,57.248875 259.75,56.242 259.75,54.998875 C259.75,53.756875 260.756875,52.75 262,52.75 C263.242,52.75 264.25,53.756875 264.25,54.998875 C264.25,56.242 263.242,57.248875 262,57.248875 L262,57.248875 Z M262,51.625 C260.137,51.625 258.625,53.135875 258.625,54.998875 C258.625,56.863 260.137,58.375 262,58.375 C263.864125,58.375 265.375,56.863 265.375,54.998875 C265.375,53.135875 263.864125,51.625 262,51.625 L262,51.625 Z" id="settings-icon"></path>
            </g>
        </g>
    </g>
</svg>