<?xml version="1.0" encoding="UTF-8" standalone="no"?>
<svg width="18px" height="18px" viewBox="0 0 18 18" version="1.1" xmlns="http://www.w3.org/2000/svg" xmlns:xlink="http://www.w3.org/1999/xlink">
    <!-- Generator: Sketch 42 (36781) - http://www.bohemiancoding.com/sketch -->
    <title>share-icon</title>
    <desc>Created with Sketch.</desc>
    <defs></defs>
    <g id="2.1.1-View" stroke="none" stroke-width="1" fill="none" fill-rule="evenodd">
        <g transform="translate(-1164.000000, -629.000000)" id="Page-actions" fill="#8A9199">
            <g transform="translate(1134.000000, 566.000000)">
                <path d="M35.8369309,73.8195214 L31.8571997,71.9224824 L44.4158003,65.6912832 L35.8369309,73.8195214 Z M39.0504205,79.1989659 L36.6369278,74.6138924 L45.4841505,66.2319281 L39.0504205,79.1989659 Z M47.8751397,63.2474109 C47.8582622,63.2232198 47.8380091,63.2035293 47.817756,63.182151 C47.7969403,63.1624605 47.7778124,63.1422074 47.7536212,63.1253299 C47.6180381,63.0206889 47.4436365,62.9706188 47.266422,63.017876 L30.4271068,71.3728362 C30.4158551,71.3756491 30.4091041,71.3840879 30.398415,71.3874634 C30.2161372,71.4409091 30.0631139,71.5753671 30.0141689,71.7739598 C29.9888526,71.8746627 30.0001043,71.9742403 30.0271084,72.0687547 C30.027671,72.0715677 30.0271084,72.0732554 30.027671,72.0760683 C30.0293587,72.0822568 30.034422,72.0867575 30.0361098,72.0929459 C30.0552377,72.1508922 30.0799915,72.2049005 30.1154344,72.2549706 C30.1323119,72.2791618 30.152565,72.2988523 30.1728181,72.3202305 C30.2009474,72.3506102 30.2302018,72.3781769 30.2656447,72.4018055 C30.2943366,72.4220586 30.3258414,72.434998 30.3584714,72.4490627 C30.3843503,72.460877 30.4057286,72.4794423 30.4338579,72.4878811 L35.542136,74.922752 L38.5120259,80.5666117 C38.5204647,80.5964288 38.5401552,80.6183696 38.5519695,80.6453737 C38.5660342,80.6763159 38.5784111,80.706133 38.597539,80.7342623 C38.6217302,80.7697052 38.650422,80.7995222 38.6813642,80.8293393 C38.7021799,80.8484672 38.7213078,80.8681577 38.7449364,80.8850352 C38.7950065,80.9204781 38.8490148,80.9452319 38.9075237,80.9643598 C38.9137121,80.9660476 38.9182128,80.9711109 38.9238387,80.9727986 C38.9266516,80.9733612 38.9289019,80.9727986 38.9317149,80.9733612 C39.0267919,81.0003653 39.1258069,81.011617 39.2265098,80.9863007 C39.4262277,80.9362305 39.5606857,80.7832072 39.6135687,80.5992417 C39.6169443,80.5896777 39.6242579,80.5834893 39.6265082,80.5733628 L47.982031,63.7329224 C48.0292882,63.5568331 47.9797807,63.3829941 47.8751397,63.2474109 L47.8751397,63.2474109 Z" id="share-icon"></path>
            </g>
        </g>
    </g>
</svg>