<?xml version="1.0" encoding="UTF-8" standalone="no"?>
<svg width="15px" height="13px" viewBox="0 0 15 13" version="1.1" xmlns="http://www.w3.org/2000/svg" xmlns:xlink="http://www.w3.org/1999/xlink">
    <!-- Generator: Sketch 41.2 (35397) - http://www.bohemiancoding.com/sketch -->
    <title>share-icon</title>
    <desc>Created with Sketch.</desc>
    <defs></defs>
    <g id="Page-3" stroke="none" stroke-width="1" fill="none" fill-rule="evenodd">
        <g id="White-Copy-9" transform="translate(-1137.000000, -586.000000)" fill="#525966">
            <g id="Group-14" transform="translate(1137.000000, 572.000000)">
                <path d="M4.85737907,18.3569945 L6.99838499,15.859071 L6.99838499,23.5008075 C6.99838499,23.7772437 7.22283319,24.0006921 7.49826963,24.0006921 C7.77470584,24.0006921 7.99815427,23.7772437 7.99815427,23.5008075 L7.99815427,15.8585711 L10.1396601,18.3569945 C10.3366146,18.5549489 10.6565408,18.5549489 10.8529955,18.3569945 C11.04995,18.1605399 11.04995,17.8411136 10.8529955,17.6436592 L7.85668692,14.147466 C7.75770976,14.0489887 7.62823964,14 7.49876951,14 C7.36879951,14 7.23932939,14.0489887 7.14035223,14.147466 L4.14404368,17.6436592 C3.94708913,17.8411136 3.94708913,18.1605399 4.14404368,18.3569945 C4.34099823,18.5549489 4.65992463,18.5549489 4.85737907,18.3569945 M14.4966546,22.0011536 C14.2212182,22.0011536 13.99677,22.224602 13.99677,22.5010382 L13.99677,26.0002307 L0.999769284,26.0002307 L0.999769284,22.5010382 C0.999769284,22.224602 0.776320849,22.0011536 0.499884642,22.0011536 C0.224448204,22.0011536 0,22.224602 0,22.5010382 L0,26.5001154 C0,26.7765516 0.224448204,27 0.499884642,27 L14.4966546,27 C14.7730908,27 14.9965393,26.7765516 14.9965393,26.5001154 L14.9965393,22.5010382 C14.9965393,22.224602 14.7730908,22.0011536 14.4966546,22.0011536" id="share-icon"></path>
            </g>
        </g>
    </g>
</svg>