<?xml version="1.0" encoding="UTF-8" standalone="no"?>
<svg width="7px" height="11px" viewBox="0 0 7 11" version="1.1" xmlns="http://www.w3.org/2000/svg" xmlns:xlink="http://www.w3.org/1999/xlink">
    <!-- Generator: Sketch 44.1 (41455) - http://www.bohemiancoding.com/sketch -->
    <title>help</title>
    <desc>Created with Sketch.</desc>
    <defs></defs>
    <g id="Page-23" stroke="none" stroke-width="1" fill="none" fill-rule="evenodd">
        <g id="2.1.1-View-Space---1280-Copy-7" transform="translate(-1068.000000, -25.000000)" fill="#797C7F">
            <g id="Topbar">
                <g id="Group-8" transform="translate(1058.000000, 17.000000)">
                    <path d="M13.72,9.48 C12.5499941,9.48 11.8800009,9.9399954 11.71,10.86 L10.45,10.86 C10.5200004,10.1199963 10.8249973,9.52500225 11.365,9.075 C11.9050027,8.62499775 12.6624951,8.4 13.6375,8.4 C14.6125049,8.4 15.3824972,8.6399976 15.9475,9.12 C16.5125028,9.6000024 16.795,10.1849965 16.795,10.875 C16.795,11.3950026 16.6650013,11.8274983 16.405,12.1725 C16.1449987,12.5175017 15.7250029,12.8499984 15.145,13.17 C14.8949987,13.3100007 14.6850008,13.4349994 14.515,13.545 C14.3449991,13.6550006 14.2100005,13.7799993 14.11,13.92 C13.919999,14.1700012 13.825,14.5299976 13.825,15 L13.825,15.585 L12.655,15.585 L12.655,14.91 C12.655,14.2799968 12.7599989,13.7975017 12.97,13.4625 C13.180001,13.1274983 13.5599972,12.8100015 14.11,12.51 C14.6600028,12.2099985 15.0299991,11.9475011 15.22,11.7225 C15.410001,11.4974989 15.505,11.1950019 15.505,10.815 C15.505,10.4349981 15.3475016,10.1175013 15.0325,9.8625 C14.7174984,9.60749873 14.2800028,9.48 13.72,9.48 Z M13.255,16.47 C13.5150013,16.47 13.7299992,16.5549992 13.9,16.725 C14.0700008,16.8950009 14.155,17.0974988 14.155,17.3325 C14.155,17.5675012 14.0700008,17.7649992 13.9,17.925 C13.7299992,18.0850008 13.5150013,18.165 13.255,18.165 C12.9949987,18.165 12.7850008,18.0850008 12.625,17.925 C12.4649992,17.7649992 12.385,17.5675012 12.385,17.3325 C12.385,17.0974988 12.4649992,16.8950009 12.625,16.725 C12.7850008,16.5549992 12.9949987,16.47 13.255,16.47 Z" id="help"></path>
                </g>
            </g>
        </g>
    </g>
</svg>