<?xml version="1.0" encoding="UTF-8" standalone="no"?>
<svg width="24px" height="16px" viewBox="0 0 24 16" version="1.1" xmlns="http://www.w3.org/2000/svg" xmlns:xlink="http://www.w3.org/1999/xlink">
    <!-- Generator: Sketch 44.1 (41455) - http://www.bohemiancoding.com/sketch -->
    <title>mobile-spaces-off</title>
    <desc>Created with Sketch.</desc>
    <defs></defs>
    <g id="Page-23" stroke="none" stroke-width="1" fill="none" fill-rule="evenodd">
        <g id="mobile-spaces-off" fill="#797C7F">
            <path d="M19.7647059,14.5882353 C19.7647059,14.848 19.5538824,15.0588235 19.2941176,15.0588235 L4.23529412,15.0588235 C3.97552941,15.0588235 3.76470588,14.848 3.76470588,14.5882353 L3.76470588,1.41176471 C3.76470588,1.152 3.97552941,0.941176471 4.23529412,0.941176471 L19.2941176,0.941176471 C19.5538824,0.941176471 19.7647059,1.152 19.7647059,1.41176471 L19.7647059,14.5882353 Z M19.2941176,0 L4.23529412,0 C3.456,0 2.82352941,0.631529412 2.82352941,1.41176471 L2.82352941,14.5882353 C2.82352941,15.3684706 3.456,16 4.23529412,16 L19.2941176,16 C20.0734118,16 20.7058824,15.3684706 20.7058824,14.5882353 L20.7058824,1.41176471 C20.7058824,0.631529412 20.0734118,0 19.2941176,0 L19.2941176,0 Z" id="Fill-1"></path>
            <path d="M23.0588235,1.88235294 C22.7990588,1.88235294 22.5882353,2.09317647 22.5882353,2.35294118 L22.5882353,13.6470588 C22.5882353,13.9068235 22.7990588,14.1176471 23.0588235,14.1176471 C23.3185882,14.1176471 23.5294118,13.9068235 23.5294118,13.6470588 L23.5294118,2.35294118 C23.5294118,2.09317647 23.3185882,1.88235294 23.0588235,1.88235294" id="Fill-3"></path>
            <path d="M0.470588235,1.88235294 C0.210823529,1.88235294 0,2.09317647 0,2.35294118 L0,13.6470588 C0,13.9068235 0.210823529,14.1176471 0.470588235,14.1176471 C0.730352941,14.1176471 0.941176471,13.9068235 0.941176471,13.6470588 L0.941176471,2.35294118 C0.941176471,2.09317647 0.730352941,1.88235294 0.470588235,1.88235294" id="Fill-5"></path>
        </g>
    </g>
</svg>