<?xml version="1.0" encoding="UTF-8" standalone="no"?>
<svg width="22px" height="22px" viewBox="0 0 22 22" version="1.1" xmlns="http://www.w3.org/2000/svg" xmlns:xlink="http://www.w3.org/1999/xlink">
    <!-- Generator: Sketch 42 (36781) - http://www.bohemiancoding.com/sketch -->
    <title>mobile-search-icon</title>
    <desc>Created with Sketch.</desc>
    <defs>
        <polygon id="path-1" points="11 22 22 22 22 0 0 0 0 11 0 22 11 22"></polygon>
    </defs>
    <g id="Symbols" stroke="none" stroke-width="1" fill="none" fill-rule="evenodd">
        <g id="Tab-bar" transform="translate(-85.000000, -13.000000)">
            <g id="mobile-search-icon">
                <g transform="translate(85.000000, 13.000000)">
                    <path d="M13.2174167,2.36591667 C14.1258333,3.64008333 14.6666667,5.19383333 14.6666667,6.875 C14.6666667,11.1714167 11.1714167,14.6666667 6.875,14.6666667 C5.19383333,14.6666667 3.64008333,14.1258333 2.36591667,13.2174167 C3.78033333,15.2001667 6.09308333,16.5 8.70833333,16.5 C13.00475,16.5 16.5,13.00475 16.5,8.70833333 C16.5,6.09308333 15.2001667,3.78033333 13.2174167,2.36591667" id="Fill-1" fill="#606366" opacity="0.15"></path>
                    <g id="Group-5">
                        <mask id="mask-2" fill="white">
                            <use xlink:href="#path-1"></use>
                        </mask>
                        <g id="Clip-4"></g>
                        <path d="M8.70833333,16.5 C4.41191667,16.5 0.916666667,13.00475 0.916666667,8.70833333 C0.916666667,4.41191667 4.41191667,0.916666667 8.70833333,0.916666667 C13.00475,0.916666667 16.5,4.41191667 16.5,8.70833333 C16.5,13.00475 13.00475,16.5 8.70833333,16.5 L8.70833333,16.5 Z M15.17175,14.5236667 C16.5623333,12.98 17.4166667,10.9440833 17.4166667,8.70833333 C17.4166667,3.90683333 13.5098333,0 8.70833333,0 C3.90683333,0 0,3.90683333 0,8.70833333 C0,13.5098333 3.90683333,17.4166667 8.70833333,17.4166667 C10.945,17.4166667 12.98,16.5623333 14.5236667,15.17175 L21.2171667,21.8661667 C21.307,21.9550833 21.4243333,22 21.5416667,22 C21.659,22 21.7763333,21.9550833 21.8661667,21.8661667 C22.0449167,21.6874167 22.0449167,21.3968333 21.8661667,21.2180833 L15.17175,14.5236667 Z" id="Fill-3" fill="#606366" mask="url(#mask-2)"></path>
                    </g>
                </g>
            </g>
        </g>
    </g>
</svg>