<?xml version="1.0" encoding="UTF-8" standalone="no"?>
<svg width="16px" height="20px" viewBox="0 0 16 20" version="1.1" xmlns="http://www.w3.org/2000/svg" xmlns:xlink="http://www.w3.org/1999/xlink">
    <!-- Generator: Sketch 44.1 (41455) - http://www.bohemiancoding.com/sketch -->
    <title>mobile-share-on</title>
    <desc>Created with Sketch.</desc>
    <defs></defs>
    <g id="Page-23" stroke="none" stroke-width="1" fill="none" fill-rule="evenodd">
        <g id="mobile-share-on" fill="#02B875">
            <path d="M4.16666667,19.1666667 L4.16666667,13.75 C4.16666667,13.0608333 4.7275,12.5 5.41666667,12.5 C6.10583333,12.5 6.66666667,13.0608333 6.66666667,13.75 L6.66666667,19.1666667 L4.16666667,19.1666667 Z M3.44666667,7.08333333 C3.44666667,5.63666667 4.01,4.27583333 5.03333333,3.25333333 L6.50583333,1.78 C6.50583333,1.78 6.50583333,1.78 6.50666667,1.78 L6.50666667,1.78 L14.1666667,9.44 L12.6933333,10.9133333 C11.6708333,11.9366667 10.31,12.5 8.86333333,12.5 C7.41666667,12.5 6.05666667,11.9366667 5.03333333,10.9133333 C4.01,9.89 3.44666667,8.53 3.44666667,7.08333333 L3.44666667,7.08333333 Z M14.1666667,0.833333333 C14.6258333,0.833333333 15,1.2075 15,1.66666667 C15,2.12583333 14.6258333,2.5 14.1666667,2.5 C13.7075,2.5 13.3333333,2.12583333 13.3333333,1.66666667 C13.3333333,1.2075 13.7075,0.833333333 14.1666667,0.833333333 L14.1666667,0.833333333 Z M15.4166667,19.1666667 L7.5,19.1666667 L7.5,13.75 C7.5,13.5416667 7.46,13.3441667 7.40333333,13.1541667 C7.8825,13.2691667 8.3725,13.3333333 8.86333333,13.3333333 C10.4625,13.3333333 12.0625,12.7233333 13.2825,11.5025 L14.7558333,10.03 C15.0816667,9.70416667 15.0816667,9.17666667 14.7558333,8.85083333 L11.1633333,5.25916667 L13.325,3.0975 C13.5725,3.24333333 13.8583333,3.33333333 14.1666667,3.33333333 C15.0875,3.33333333 15.8333333,2.5875 15.8333333,1.66666667 C15.8333333,0.745833333 15.0875,0 14.1666667,0 C13.2458333,0 12.5,0.745833333 12.5,1.66666667 C12.5,1.975 12.5891667,2.26083333 12.7358333,2.50833333 L10.5741667,4.67 L7.09583333,1.19083333 C6.9325,1.02833333 6.72,0.946666667 6.50666667,0.946666667 C6.29333333,0.946666667 6.08,1.02833333 5.9175,1.19083333 L4.44416667,2.66416667 C2.00333333,5.105 2.00333333,9.06166667 4.44416667,11.5025 C4.54416667,11.6025 4.65,11.6925 4.755,11.7841667 C3.93083333,12.0616667 3.33333333,12.8316667 3.33333333,13.75 L3.33333333,19.1666667 L0.416666667,19.1666667 C0.186666667,19.1666667 0,19.3533333 0,19.5833333 C0,19.8133333 0.186666667,20 0.416666667,20 L3.33333333,20 L7.5,20 L15.4166667,20 C15.6466667,20 15.8333333,19.8133333 15.8333333,19.5833333 C15.8333333,19.3533333 15.6466667,19.1666667 15.4166667,19.1666667 L15.4166667,19.1666667 Z" id="Fill-1"></path>
            <path d="M5.41666667,13.3333333 C5.18666667,13.3333333 5,13.52 5,13.75 C5,13.98 5.18666667,14.1666667 5.41666667,14.1666667 C5.64666667,14.1666667 5.83333333,13.98 5.83333333,13.75 C5.83333333,13.52 5.64666667,13.3333333 5.41666667,13.3333333" id="Fill-3"></path>
        </g>
    </g>
</svg>