<?xml version="1.0" encoding="UTF-8" standalone="no"?>
<svg width="16px" height="20px" viewBox="0 0 16 20" version="1.1" xmlns="http://www.w3.org/2000/svg" xmlns:xlink="http://www.w3.org/1999/xlink">
    <!-- Generator: Sketch 44.1 (41455) - http://www.bohemiancoding.com/sketch -->
    <title>mobile-search-off</title>
    <desc>Created with Sketch.</desc>
    <defs>
        <polygon id="path-1" points="7.59996176 20 0 20 0 0 7.59996176 0 15.1999235 0 15.1999235 20"></polygon>
    </defs>
    <g id="Page-23" stroke="none" stroke-width="1" fill="none" fill-rule="evenodd">
        <g id="mobile-search-off">
            <mask id="mask-2" fill="white">
                <use xlink:href="#path-1"></use>
            </mask>
            <g id="Clip-2"></g>
            <path d="M14.38368,3.1216 C14.36528,3.184 14.31488,3.2992 14.17888,3.3672 L3.48528,8.7144 C3.42928,8.7424 3.36928,8.7568 3.30688,8.7568 C3.17248,8.7568 3.04768,8.6904 2.97328,8.5784 L2.62688,8.0584 C2.54688,7.9384 2.55488,7.8184 2.56688,7.7576 C2.57968,7.6976 2.61728,7.5832 2.73728,7.5032 L12.69168,0.8672 C12.75888,0.8224 12.83328,0.8 12.91248,0.8 C13.05488,0.8 13.18368,0.8728 13.25648,0.9944 L14.34288,2.804 C14.42128,2.9344 14.40208,3.0592 14.38368,3.1216 L14.38368,3.1216 Z M6.39968,11.2 L7.19968,11.2 L7.19968,10.4 L6.39968,10.4 L6.39968,11.2 Z M15.02848,2.3928 L13.94288,0.5824 C13.71728,0.2064 13.31888,0 12.91248,0 C12.68448,0 12.45328,0.0648 12.24848,0.2016 L2.29408,6.8376 C1.74208,7.2056 1.59328,7.9504 1.96128,8.5024 L2.30768,9.0224 C2.53728,9.3664 2.91648,9.5568 3.30688,9.5568 C3.48768,9.5568 3.67088,9.516 3.84288,9.4296 L6.39968,8.1512 L6.39968,9.6 C5.95808,9.6 5.59968,9.9584 5.59968,10.4 L5.59968,11.2 C5.59968,11.4976 5.77008,11.7472 6.01168,11.8848 L0.10128,18.5344 C-0.04592,18.6992 -0.03072,18.952 0.13408,19.0984 C0.29888,19.2464 0.55168,19.2304 0.69888,19.0656 L6.39968,12.652 L6.39968,19.6 C6.39968,19.8208 6.57888,20 6.79968,20 C7.02048,20 7.19968,19.8208 7.19968,19.6 L7.19968,12.652 L12.90128,19.0656 C12.97968,19.1544 13.09008,19.2 13.19968,19.2 C13.29488,19.2 13.38928,19.1664 13.46528,19.0984 C13.63088,18.952 13.64608,18.6992 13.49888,18.5344 L7.58848,11.8848 C7.83008,11.7472 7.99968,11.4976 7.99968,11.2 L7.99968,10.4 C7.99968,9.9584 7.64208,9.6 7.19968,9.6 L7.19968,7.7512 L14.53648,4.0832 C15.16128,3.7704 15.38848,2.992 15.02848,2.3928 L15.02848,2.3928 Z" id="Fill-1" fill="#797C7F" mask="url(#mask-2)"></path>
        </g>
    </g>
</svg>