<?xml version="1.0" encoding="UTF-8" standalone="no"?>
<svg width="21px" height="21px" viewBox="0 0 21 21" version="1.1" xmlns="http://www.w3.org/2000/svg" xmlns:xlink="http://www.w3.org/1999/xlink">
    <!-- Generator: Sketch 44.1 (41455) - http://www.bohemiancoding.com/sketch -->
    <title>mobile-support-on</title>
    <desc>Created with Sketch.</desc>
    <defs></defs>
    <g id="Page-23" stroke="none" stroke-width="1" fill="none" fill-rule="evenodd">
        <g id="mobile-support-on" transform="translate(1.000000, 1.000000)">
            <rect id="Avatar" stroke="#02B875" stroke-width="0.769230769" x="-0.384615385" y="-0.384615385" width="19.7692308" height="19.7692308" rx="9.88461538"></rect>
            <path d="M9.76591587,6.54085103 C8.85498936,6.54085103 8.33335551,6.89898771 8.20099867,7.6152718 L7.2200058,7.6152718 C7.27450567,7.03913025 7.51196586,6.57588824 7.93239348,6.2255319 C8.3528211,5.87517555 8.94257877,5.7 9.70168419,5.7 C10.4607896,5.7 11.0602793,5.88685392 11.5001711,6.26056736 C11.940063,6.63428079 12.1600056,7.08973722 12.1600056,7.62695028 C12.1600056,8.03180651 12.0587931,8.36853284 11.856365,8.63713937 C11.6539369,8.90574591 11.3269425,9.16461644 10.8753721,9.41375873 C10.6807297,9.52275848 10.5172325,9.62007823 10.3848757,9.70572089 C10.2525188,9.79136356 10.1474135,9.8886833 10.0695565,9.99768306 C9.92162829,10.1923255 9.84766528,10.4726063 9.84766528,10.8385341 L9.84766528,11.2939951 L8.93674332,11.2939951 L8.93674332,10.7684632 C8.93674332,10.2779643 9.01849191,9.90231005 9.18199154,9.64148922 C9.34549117,9.38066838 9.64134321,9.13347622 10.0695565,8.89990532 C10.4977698,8.66633442 10.7858363,8.46196295 10.9337645,8.28678478 C11.0816928,8.1116066 11.1556558,7.87609281 11.1556558,7.58023634 C11.1556558,7.28437987 11.0330329,7.0371877 10.7877834,6.83865244 C10.542534,6.64011718 10.2019149,6.54085103 9.76591587,6.54085103 Z M9.40388279,11.9830258 C9.6063109,11.9830258 9.77370087,12.0492032 9.90605771,12.18156 C10.0384146,12.3139169 10.104592,12.4715749 10.104592,12.6545388 C10.104592,12.8375026 10.0384146,12.9912678 9.90605771,13.115839 C9.77370087,13.2404101 9.6063109,13.3026948 9.40388279,13.3026948 C9.20145467,13.3026948 9.0379575,13.2404101 8.91338635,13.115839 C8.7888152,12.9912678 8.72653057,12.8375026 8.72653057,12.6545388 C8.72653057,12.4715749 8.7888152,12.3139169 8.91338635,12.18156 C9.0379575,12.0492032 9.20145467,11.9830258 9.40388279,11.9830258 Z" id="support" fill="#02B875"></path>
        </g>
    </g>
</svg>