<?xml version="1.0" encoding="UTF-8" standalone="no"?>
<svg width="23px" height="24px" viewBox="0 0 23 24" version="1.1" xmlns="http://www.w3.org/2000/svg" xmlns:xlink="http://www.w3.org/1999/xlink">
    <!-- Generator: Sketch 42 (36781) - http://www.bohemiancoding.com/sketch -->
    <title>mobile-spaces-icon</title>
    <desc>Created with Sketch.</desc>
    <defs>
        <polygon id="path-1" points="11.03952 24 22.07904 24 22.07904 0 0 0 0 12 0 24 11.03952 24"></polygon>
    </defs>
    <g id="Symbols" stroke="none" stroke-width="1" fill="none" fill-rule="evenodd">
        <g id="Tab-bar" transform="translate(-21.000000, -12.000000)">
            <g id="mobile-spaces-icon">
                <g transform="translate(21.000000, 12.000000)">
                    <path d="M14.4,17.66208 L14.4,18.45216 C13.46112,18.67008 11.664,19.02528 9.6,19.15104 C10.06944,19.17984 10.54944,19.2 11.04,19.2 C13.68864,19.2 16.12704,18.71904 17.28,18.4512 L17.28,15.984 C16.45056,16.70592 15.4752,17.2752 14.4,17.66208" id="Fill-1" fill="#606366" opacity="0.15"></path>
                    <path d="M11.04,0.96 C10.54848,0.96 10.06944,1.008 9.6,1.08384 C13.65504,1.73568 16.7472,5.08128 16.7472,9.12 C16.7472,13.15968 13.65504,16.50432 9.6,17.15616 C10.06944,17.232 10.54848,17.28 11.04,17.28 C15.7824,17.28 19.6272,13.62624 19.6272,9.12 C19.6272,4.61376 15.7824,0.96 11.04,0.96" id="Fill-3" fill="#606366" opacity="0.15"></path>
                    <path d="M12.96,7.68 C13.22496,7.68 13.44,7.89504 13.44,8.16 C13.44,8.42496 13.22496,8.64 12.96,8.64 C12.69504,8.64 12.48,8.42496 12.48,8.16 C12.48,7.89504 12.69504,7.68 12.96,7.68" id="Fill-5" fill="#606366"></path>
                    <path d="M9.12,7.68 C9.38496,7.68 9.6,7.89504 9.6,8.16 C9.6,8.42496 9.38496,8.64 9.12,8.64 C8.85504,8.64 8.64,8.42496 8.64,8.16 C8.64,7.89504 8.85504,7.68 9.12,7.68" id="Fill-7" fill="#606366"></path>
                    <path d="M17.76,21.12 L14.88,21.12 C14.61504,21.12 14.4,21.33504 14.4,21.6 C14.4,21.86496 14.61504,22.08 14.88,22.08 L17.76,22.08 C18.02496,22.08 18.24,21.86496 18.24,21.6 C18.24,21.33504 18.02496,21.12 17.76,21.12" id="Fill-9" fill="#606366"></path>
                    <g id="Group-13">
                        <mask id="mask-2" fill="white">
                            <use xlink:href="#path-1"></use>
                        </mask>
                        <g id="Clip-12"></g>
                        <path d="M11.04,19.2 C8.39136,19.2 5.952,18.71904 4.8,18.4512 L4.8,15.984 C6.432,17.40384 8.62272,18.24 11.04,18.24 C13.45728,18.24 15.648,17.40384 17.28,15.984 L17.28,18.4512 C16.128,18.71904 13.68864,19.2 11.04,19.2 L11.04,19.2 Z M11.04,15.36 C14.0832,15.36 16.79808,14.2752 18.64416,12.47424 C17.48256,15.34368 14.59968,17.28 11.04,17.28 C7.48032,17.28 4.59744,15.34368 3.43584,12.47424 C5.28192,14.2752 7.9968,15.36 11.04,15.36 L11.04,15.36 Z M8.01696,5.76 C8.5584,4.62912 9.70464,3.84 11.04,3.84 C12.37536,3.84 13.5216,4.62912 14.06304,5.76 L8.01696,5.76 Z M11.04,0.96 C15.38688,0.96 19.2,4.99776 19.2,9.6 C19.2,9.83712 19.18464,10.0704 19.16448,10.30176 C17.64384,12.83424 14.55264,14.4 11.04,14.4 C9.8544,14.4 8.72544,14.208 7.68,13.87488 L7.68,12 C7.68,11.81856 7.57728,11.65248 7.41504,11.57088 L6.1152,10.92096 C5.89632,10.81152 5.76,10.59072 5.76,10.34592 L5.76,10.2432 C5.76,9.88896 6.048,9.60096 6.4032,9.60096 L7.2,9.60096 C7.46496,9.60096 7.68,9.38592 7.68,9.12096 L7.68,7.20096 C7.68,7.0368 7.70592,6.87936 7.72896,6.72096 L14.352,6.72096 C14.37504,6.87936 14.40096,7.0368 14.40096,7.20096 L14.40096,8.16096 C14.40096,8.42592 14.616,8.64096 14.88096,8.64096 L15.67776,8.64096 C16.03296,8.64096 16.32096,8.92896 16.32096,9.28416 L16.32096,9.38688 C16.32096,9.63168 16.18464,9.85248 15.96576,9.96192 L14.66592,10.61184 C14.54784,10.67136 14.46048,10.77792 14.42208,10.90464 C14.38368,11.03136 14.40096,11.1696 14.4672,11.2848 C14.53152,11.39712 14.59296,11.60928 14.59296,11.62272 C14.38752,11.7168 13.4496,11.6928 12.46944,11.5776 C12.46944,11.55648 12.48,11.54016 12.48,11.52 C12.48,10.99008 12.04992,10.56 11.52,10.56 C10.99008,10.56 10.56,10.99008 10.56,11.52 C10.56,12.04992 10.99008,12.48 11.52,12.48 C11.616,12.48 11.70336,12.4512 11.79072,12.42528 C11.83488,12.44736 11.88,12.46752 11.93184,12.4752 C14.68896,12.86784 15.08832,12.4704 15.21888,12.33888 C15.53568,12.02208 15.55968,11.616 15.48288,11.2752 L16.39392,10.8192 C16.94016,10.5456 17.28,9.99648 17.28,9.38496 L17.28,9.28224 C17.28,8.39808 16.56096,7.67904 15.6768,7.67904 L15.36,7.67904 L15.36,7.19904 C15.36,4.81728 13.42176,2.87904 11.04,2.87904 C8.65824,2.87904 6.72,4.81728 6.72,7.19904 L6.72,8.63904 L6.4032,8.63904 C5.51904,8.63904 4.8,9.35808 4.8,10.24128 L4.8,10.344 C4.8,10.95456 5.13984,11.50368 5.68608,11.77824 L6.72,12.29568 L6.72,13.51008 C5.10144,12.80256 3.76032,11.70912 2.91552,10.3008 C2.89536,10.0704 2.88,9.83712 2.88,9.6 C2.88,4.99776 6.69312,0.96 11.04,0.96 L11.04,0.96 Z M2.4,0.96 C2.66496,0.96 2.88,1.17504 2.88,1.44 C2.88,1.70496 2.66496,1.92 2.4,1.92 C2.13504,1.92 1.92,1.70496 1.92,1.44 C1.92,1.17504 2.13504,0.96 2.4,0.96 L2.4,0.96 Z M18.24,16.31712 L18.24,15.00288 C19.24512,13.7904 19.91232,12.29568 20.10144,10.60128 C20.13792,10.27392 20.16,9.9408 20.16,9.6 C20.16,4.56288 16.07712,0 11.04,0 C7.46208,0 4.37376,2.30784 2.88,5.44704 L2.88,2.79168 C3.43776,2.59296 3.84,2.06592 3.84,1.44 C3.84,0.64512 3.19488,0 2.4,0 C1.60512,0 0.96,0.64512 0.96,1.44 C0.96,2.06592 1.36224,2.59392 1.92,2.79168 L1.92,10.08 C1.92,10.1376 1.9344,10.1904 1.95264,10.24128 C1.96128,10.36128 1.96512,10.48224 1.97856,10.60032 C2.16768,12.29376 2.83488,13.78944 3.84,15.00192 L3.84,16.36992 C0.93408,18.39264 0,21.52032 0,23.52 C0,23.78496 0.21504,24 0.48,24 C0.74496,24 0.96,23.78496 0.96,23.52 C0.96,21.88416 1.69056,19.41504 3.84,17.61984 L3.84,18.45216 C3.84,18.90048 4.14816,19.2864 4.584,19.38816 C5.78304,19.66752 8.28864,20.16096 11.04,20.16096 C13.79136,20.16096 16.296,19.66848 17.49504,19.38816 C17.93088,19.2864 18.23904,18.90048 18.23904,18.45216 L18.23904,17.56128 C20.38464,19.31904 21.11904,21.76512 21.11904,23.52 C21.11904,23.78496 21.33408,24 21.59904,24 C21.864,24 22.07904,23.78496 22.07904,23.52 C22.08,21.3744 21.14016,18.29088 18.24,16.31712 L18.24,16.31712 Z" id="Fill-11" fill="#606366" mask="url(#mask-2)"></path>
                    </g>
                </g>
            </g>
        </g>
    </g>
</svg>