<?xml version="1.0" encoding="UTF-8" standalone="no"?>
<svg width="20px" height="13px" viewBox="0 0 20 13" version="1.1" xmlns="http://www.w3.org/2000/svg" xmlns:xlink="http://www.w3.org/1999/xlink">
    <!-- Generator: Sketch 44.1 (41455) - http://www.bohemiancoding.com/sketch -->
    <title>tooltip-h2-on</title>
    <desc>Created with Sketch.</desc>
    <defs></defs>
    <g id="Page-23" stroke="none" stroke-width="1" fill="none" fill-rule="evenodd">
        <g id="Artboard" transform="translate(-60.000000, -60.000000)" fill="#02B875">
            <g id="Tooltip-on" transform="translate(24.000000, 59.000000)">
                <path d="M36,12.033 C36,12.611 36.459,13.07 37.054,13.07 C37.632,13.07 38.091,12.611 38.091,12.033 L38.091,7.97 L43.769,7.97 L43.769,12.033 C43.769,12.611 44.228,13.07 44.806,13.07 C45.401,13.07 45.86,12.611 45.86,12.033 L45.86,2.037 C45.86,1.459 45.401,1 44.806,1 C44.228,1 43.769,1.459 43.769,2.037 L43.769,6.032 L38.091,6.032 L38.091,2.037 C38.091,1.459 37.632,1 37.054,1 C36.459,1 36,1.459 36,2.037 L36,12.033 Z M48.949,12.231 C48.949,12.699 49.313,12.985 49.807,12.985 L54.968,12.985 C55.358,12.985 55.67,12.673 55.67,12.283 C55.67,11.893 55.358,11.581 54.968,11.581 L51.276,11.581 L53.148,10.021 C54.76,8.708 55.514,7.928 55.514,6.498 L55.514,6.472 C55.514,4.847 54.292,3.755 52.511,3.755 C51.081,3.755 50.236,4.301 49.495,5.224 C49.378,5.367 49.313,5.549 49.313,5.718 C49.313,6.121 49.638,6.446 50.041,6.446 C50.301,6.446 50.483,6.329 50.6,6.199 C51.159,5.523 51.666,5.185 52.394,5.185 C53.226,5.185 53.863,5.705 53.863,6.602 C53.863,7.421 53.408,8.006 52.16,9.059 L49.365,11.438 C49.092,11.659 48.949,11.919 48.949,12.231 Z" id="tooltip-h2-on"></path>
            </g>
        </g>
    </g>
</svg>