<?xml version="1.0" encoding="UTF-8" standalone="no"?>
<svg width="17px" height="16px" viewBox="0 0 17 16" version="1.1" xmlns="http://www.w3.org/2000/svg" xmlns:xlink="http://www.w3.org/1999/xlink">
    <!-- Generator: Sketch 42 (36781) - http://www.bohemiancoding.com/sketch -->
    <title>search-icon</title>
    <desc>Created with Sketch.</desc>
    <defs></defs>
    <g id="2.1.1-View" stroke="none" stroke-width="1" fill="none" fill-rule="evenodd">
        <g transform="translate(-30.000000, -22.000000)" id="Sidebar" fill="#66737F">
            <g>
                <g id="Search-input">
                    <path d="M36.5621831,34.0026256 C33.4956245,34.0026256 31.0095666,31.5400869 31.0095666,28.5014222 C31.0095666,25.4632576 33.4956245,23.0002188 36.5621831,23.0002188 C39.6287418,23.0002188 42.1147996,25.4632576 42.1147996,28.5014222 C42.1147996,31.5400869 39.6287418,34.0026256 36.5621831,34.0026256 M46.0092029,37.1873222 L41.5257175,32.7453505 C42.5196359,31.6066014 43.1243663,30.1252774 43.1243663,28.5014222 C43.1243663,24.9106367 40.1865274,22 36.5621831,22 C32.9378389,22 30,24.9106367 30,28.5014222 C30,32.0922077 32.9378389,35.0028444 36.5621831,35.0028444 C38.2012146,35.0028444 39.6963828,34.4037133 40.8462792,33.4189979 L45.3292598,37.8604695 C45.5170392,38.0465102 45.8214236,38.0465102 46.0092029,37.8604695 C46.1964776,37.6744288 46.1964776,37.3728628 46.0092029,37.1873222" id="search-icon"></path>
                </g>
            </g>
        </g>
    </g>
</svg>