<?xml version="1.0" encoding="UTF-8" standalone="no"?>
<svg width="16px" height="16px" viewBox="0 0 16 16" version="1.1" xmlns="http://www.w3.org/2000/svg" xmlns:xlink="http://www.w3.org/1999/xlink">
    <!-- Generator: Sketch 41.2 (35397) - http://www.bohemiancoding.com/sketch -->
    <title>search-active</title>
    <desc>Created with Sketch.</desc>
    <defs></defs>
    <g id="Page-3" stroke="none" stroke-width="1" fill="none" fill-rule="evenodd">
        <g id="White-Copy-2" transform="translate(-359.000000, -29.000000)" fill="#525966">
            <g id="Group-16" transform="translate(340.000000, 12.000000)">
                <path d="M25.5014222,29.0026256 C22.4632576,29.0026256 20.0002188,26.5400869 20.0002188,23.5014222 C20.0002188,20.4632576 22.4632576,18.0002188 25.5014222,18.0002188 C28.5395868,18.0002188 31.0026256,20.4632576 31.0026256,23.5014222 C31.0026256,26.5400869 28.5395868,29.0026256 25.5014222,29.0026256 M34.8609696,32.1873222 L30.4189979,27.7453505 C31.4037133,26.6066014 32.0028444,25.1252774 32.0028444,23.5014222 C32.0028444,19.9106367 29.0922077,17 25.5014222,17 C21.9106367,17 19,19.9106367 19,23.5014222 C19,27.0922077 21.9106367,30.0028444 25.5014222,30.0028444 C27.1252774,30.0028444 28.6066014,29.4037133 29.7458507,28.4189979 L34.1873222,32.8604695 C34.3733629,33.0465102 34.6749289,33.0465102 34.8609696,32.8604695 C35.0465102,32.6744288 35.0465102,32.3728628 34.8609696,32.1873222" id="search-active"></path>
            </g>
        </g>
    </g>
</svg>