<?xml version="1.0" encoding="UTF-8" standalone="no"?>
<svg width="19px" height="18px" viewBox="0 0 19 18" version="1.1" xmlns="http://www.w3.org/2000/svg" xmlns:xlink="http://www.w3.org/1999/xlink">
    <!-- Generator: Sketch 42 (36781) - http://www.bohemiancoding.com/sketch -->
    <title>search-icon</title>
    <desc>Created with Sketch.</desc>
    <defs></defs>
    <g id="2.1.1-View" stroke="none" stroke-width="1" fill="none" fill-rule="evenodd">
        <g id="2.1.1-View-Copy-6" transform="translate(-980.000000, -21.000000)" fill="#8A9199">
            <g id="Sidebar">
                <g id="Search-input" transform="translate(980.000000, 1.000000)">
                    <path d="M7.38245603,33.5029538 C3.93257754,33.5029538 1.13576247,30.7325978 1.13576247,27.3141 C1.13576247,23.8961648 3.93257754,21.1252461 7.38245603,21.1252461 C10.8323345,21.1252461 13.6291496,23.8961648 13.6291496,27.3141 C13.6291496,30.7325978 10.8323345,33.5029538 7.38245603,33.5029538 M18.0103533,37.0857375 L12.9664322,32.0885194 C14.0845903,30.8074266 14.7649121,29.1409371 14.7649121,27.3141 C14.7649121,23.2744663 11.4598433,20 7.38245603,20 C3.30506878,20 0,23.2744663 0,27.3141 C0,31.3537336 3.30506878,34.6281999 7.38245603,34.6281999 C9.2263664,34.6281999 10.9084306,33.9541775 12.2020641,32.8463726 L17.2454173,37.8430282 C17.4566691,38.0523239 17.7991015,38.0523239 18.0103533,37.8430282 C18.2210373,37.6337324 18.2210373,37.2944707 18.0103533,37.0857375" id="search-icon"></path>
                </g>
            </g>
        </g>
    </g>
</svg>