<?xml version="1.0" encoding="UTF-8" standalone="no"?>
<svg width="20px" height="20px" viewBox="0 0 20 20" version="1.1" xmlns="http://www.w3.org/2000/svg" xmlns:xlink="http://www.w3.org/1999/xlink">
    <!-- Generator: Sketch 41.2 (35397) - http://www.bohemiancoding.com/sketch -->
    <title>spaces-icon</title>
    <desc>Created with Sketch.</desc>
    <defs></defs>
    <g id="Page-3" stroke="none" stroke-width="1" fill="none" fill-rule="evenodd">
        <g id="White-Copy-2" transform="translate(-1000.000000, -26.000000)" fill="#525966">
            <g id="Page-1" transform="translate(1000.000000, 20.000000)">
                <g id="Group-11">
                    <path d="M2.00024003,9.20038405 L18.0021603,9.20038405 C18.2229868,9.20038405 18.4022083,9.02036244 18.4022083,8.80033604 C18.4022083,8.57950954 18.2229868,8.40028803 18.0021603,8.40028803 L2.00024003,8.40028803 C1.78021363,8.40028803 1.60019202,8.57950954 1.60019202,8.80033604 C1.60019202,9.02036244 1.78021363,9.20038405 2.00024003,9.20038405 L2.00024003,9.20038405 Z M0.800096012,25.199904 L19.2023043,25.199904 L19.2023043,11.5990719 L0.800096012,11.5990719 L0.800096012,25.199904 Z M0,26 L20.0024003,26 L20.0024003,10.7981758 L0,10.7981758 L0,26 Z M4.40052806,6.80009601 L15.6018722,6.80009601 C15.8226987,6.80009601 16.0019202,6.62007441 16.0019202,6.40004801 C16.0019202,6.17922151 15.8226987,6 15.6018722,6 L4.40052806,6 C4.18050166,6 4.00048006,6.17922151 4.00048006,6.40004801 C4.00048006,6.62007441 4.18050166,6.80009601 4.40052806,6.80009601 L4.40052806,6.80009601 Z" id="spaces-icon"></path>
                </g>
            </g>
        </g>
    </g>
</svg>